<?xml version="1.0" standalone="no"?>
<!DOCTYPE svg PUBLIC "-//W3C//DTD SVG 20010904//EN"
 "http://www.w3.org/TR/2001/REC-SVG-20010904/DTD/svg10.dtd">
<svg version="1.0" xmlns="http://www.w3.org/2000/svg"
 width="1016.000000pt" height="583.000000pt" viewBox="0 0 1016.000000 583.000000"
 preserveAspectRatio="xMidYMid meet">

<g transform="translate(0.000000,583.000000) scale(0.100000,-0.100000)"
fill="#000000" stroke="none">
<path d="M0 5673 c1 -87 4 -168 6 -179 5 -19 15 -22 87 -28 45 -3 115 -10 155
-16 39 -5 102 -13 140 -18 37 -4 72 -10 77 -14 6 -3 40 -7 75 -9 36 -1 70 -5
75 -9 10 -7 64 -15 170 -25 28 -3 75 -7 105 -11 30 -3 61 -6 68 -6 6 -1 12 -6
12 -11 0 -5 27 -7 65 -5 46 4 63 2 58 -6 -4 -6 0 -5 9 2 13 10 17 10 22 -3 3
-9 17 -15 33 -14 25 0 26 1 8 9 -13 6 -15 9 -5 9 8 1 27 -5 41 -13 30 -15 178
-19 196 -5 8 7 14 5 21 -6 5 -9 13 -16 18 -15 5 1 34 -5 64 -13 30 -9 98 -21
150 -27 52 -6 109 -13 125 -16 17 -2 82 -10 145 -18 63 -8 130 -18 149 -22 26
-5 32 -4 26 5 -5 9 1 8 16 -2 13 -9 55 -18 94 -21 38 -3 101 -10 140 -16 251
-38 350 -49 390 -43 33 4 55 1 78 -10 28 -15 370 -67 612 -94 l70 -8 -3 -138
-2 -137 43 0 c24 0 79 -4 123 -9 43 -6 133 -15 199 -21 66 -6 165 -17 220 -25
55 -7 128 -12 162 -11 33 0 59 -2 57 -6 -3 -4 4 -7 13 -7 52 -2 168 -12 243
-21 209 -26 278 -32 313 -28 20 2 38 0 39 -4 2 -5 55 -13 118 -18 165 -14 293
-27 390 -39 46 -6 90 -11 96 -11 8 0 15 33 19 98 4 53 9 100 12 105 2 4 13 2
24 -4 15 -8 19 -17 14 -42 -3 -18 -12 -131 -20 -252 -19 -276 -71 -972 -81
-1072 l-5 -51 -72 -6 c-40 -3 -115 -8 -167 -11 -367 -19 -492 -26 -615 -35
-77 -5 -234 -14 -350 -20 -115 -6 -226 -11 -245 -13 l-35 -2 -3 48 c-3 46 -4
47 -35 46 -18 -1 -43 -5 -57 -10 -19 -6 -14 -8 23 -5 52 3 62 -3 51 -36 -6
-21 -7 -21 -20 -4 -12 17 -13 16 -11 -10 l2 -29 -69 -3 c-38 -2 -76 0 -85 4
-9 4 -20 6 -24 5 -5 -1 -7 13 -5 31 2 27 8 34 33 40 26 6 25 6 -10 5 l-40 -2
-1 -45 0 -45 -45 -7 c-24 -3 -87 -7 -140 -7 l-96 -1 -6 -182 c-4 -101 -10
-308 -13 -460 l-7 -277 -26 -6 c-14 -3 -100 -16 -191 -30 -91 -14 -208 -32
-260 -41 -52 -8 -126 -19 -165 -24 -38 -6 -95 -15 -125 -20 -30 -5 -86 -14
-125 -20 -133 -21 -122 -15 -130 -73 -14 -99 -15 -107 -5 -107 6 0 10 -4 10
-8 0 -5 -42 -17 -92 -26 -143 -27 -129 -35 -131 70 -1 77 -3 91 -16 88 -16 -3
-198 -31 -376 -58 -55 -8 -174 -26 -265 -40 -91 -14 -226 -35 -300 -47 -74
-11 -189 -29 -255 -40 -66 -11 -223 -35 -350 -54 -126 -19 -275 -42 -330 -50
-55 -9 -143 -22 -195 -28 l-95 -13 -3 -882 -2 -882 5080 0 5080 0 0 739 c0
680 -4 797 -25 732 -4 -12 -22 -23 -53 -30 -81 -20 -187 -53 -197 -61 -16 -13
-329 -100 -359 -100 -35 0 -97 31 -76 38 8 3 26 9 40 15 14 5 32 11 40 12 23
3 133 37 150 46 20 11 158 55 250 80 41 11 79 25 84 30 6 5 20 9 32 9 12 0 42
9 68 20 l46 21 0 2139 0 2140 -5080 0 -5081 0 1 -157z m171 121 l24 -26 -24
-19 c-30 -24 -41 -24 -41 0 0 12 -8 21 -22 23 -28 4 -36 28 -9 28 12 0 21 5
21 10 0 18 26 10 51 -16z m939 17 c0 -16 -74 -21 -90 -6 -13 13 -8 15 38 15
29 0 52 -4 52 -9z m40 -11 c0 -11 -4 -20 -10 -20 -5 0 -10 2 -10 4 0 2 -3 11
-6 20 -4 11 -1 16 10 16 9 0 16 -8 16 -20z m80 11 c0 -12 -57 -41 -64 -33 -3
3 -6 14 -6 24 0 14 8 18 35 18 19 0 35 -4 35 -9z m116 -18 c-2 -16 -8 -28 -15
-27 -6 1 -20 2 -31 3 -14 1 -20 8 -20 26 0 22 4 25 34 25 32 0 34 -2 32 -27z
m-934 -9 c15 -10 9 -81 -8 -88 -65 -25 -136 47 -91 93 11 12 77 9 99 -5z
m1141 -4 c21 -25 21 -26 -3 -53 l-21 -22 -6 23 c-3 12 -12 22 -19 22 -19 0
-18 10 4 31 22 23 24 23 45 -1z m-884 -51 c32 -30 26 -73 -12 -77 -54 -6 -92
62 -49 87 25 15 36 13 61 -10z m180 -47 c34 -5 64 -5 67 -1 5 9 32 2 52 -14 7
-6 36 -12 65 -14 67 -5 80 -10 73 -28 -3 -8 -2 -15 3 -15 5 0 11 10 15 23 4
15 8 18 14 10 4 -7 23 -14 42 -16 19 -3 42 -7 50 -11 8 -3 33 -8 55 -10 22 -2
70 -9 107 -15 37 -6 73 -8 81 -5 8 3 18 1 21 -5 4 -5 33 -13 66 -17 33 -4 60
-11 60 -15 0 -5 9 -4 20 3 16 10 22 10 28 1 4 -6 26 -10 50 -10 23 1 42 -1 42
-5 0 -3 18 -9 40 -13 28 -5 40 -12 40 -23 1 -15 2 -15 14 1 16 20 69 17 118
-7 26 -13 29 -14 24 -1 -3 9 0 15 9 15 8 0 15 -4 15 -9 0 -9 72 -26 100 -23
21 1 103 -19 116 -30 8 -5 14 -2 18 9 4 11 10 13 14 7 4 -6 16 -11 27 -12 11
0 31 -3 45 -6 14 -3 41 -7 60 -11 105 -17 140 -27 140 -39 0 -6 7 -3 14 6 7
10 15 15 18 12 3 -3 18 -7 33 -10 16 -3 36 -9 45 -14 10 -5 20 -6 24 -3 3 3 6
-1 6 -10 0 -10 8 -17 19 -17 11 0 23 -4 26 -10 7 -12 -58 -14 -69 -2 -4 4 -15
7 -24 8 -10 1 -27 2 -39 3 -14 0 -23 8 -24 19 -1 15 -2 15 -6 -1 -4 -14 -11
-17 -26 -12 -30 8 -47 11 -157 25 -52 7 -99 17 -104 21 -5 5 -15 4 -23 -2 -10
-9 -13 -7 -13 5 0 10 -5 14 -10 11 -6 -4 -17 -1 -25 5 -12 10 -15 10 -15 0 0
-7 -10 -10 -27 -6 -137 26 -143 28 -144 44 -1 14 -2 14 -6 -1 -3 -10 -10 -16
-17 -14 -7 3 -19 1 -27 -3 -8 -6 -20 -4 -30 6 -9 8 -31 14 -50 13 -51 -3 -180
26 -190 42 -6 10 -9 11 -9 2 0 -17 -21 -12 -37 7 -11 13 -12 13 -13 -2 0 -20
-15 -24 -25 -8 -4 6 -12 10 -18 9 -30 -4 -57 2 -70 16 -11 11 -17 11 -19 3 -3
-9 -18 -9 -62 -2 -31 6 -59 7 -62 2 -10 -15 -23 -8 -17 9 4 10 2 14 -5 9 -6
-3 -15 2 -21 11 -8 14 -10 15 -11 3 0 -13 -1 -13 -10 0 -7 11 -10 12 -10 2 0
-8 -6 -12 -12 -9 -7 2 -21 0 -31 -5 -19 -10 -46 9 -48 34 0 10 -2 10 -6 1 -2
-7 -16 -13 -29 -13 -13 0 -24 -5 -24 -11 0 -5 -4 -7 -10 -4 -5 3 -10 16 -10
28 0 19 -1 19 -13 4 -11 -16 -18 -17 -82 -3 -39 8 -99 17 -135 21 -36 4 -69
10 -75 13 -5 4 -17 7 -25 7 -8 1 -25 2 -36 3 -22 2 -37 41 -27 69 5 11 9 11
22 -1 10 -9 45 -20 80 -24z m-769 -69 c16 -11 45 -17 94 -17 l70 -1 10 -33 c5
-18 7 -34 4 -37 -7 -8 -212 26 -225 37 -17 13 -17 55 0 61 19 8 21 8 47 -10z
m2756 -12 c11 9 14 8 14 -4 0 -8 -6 -19 -13 -26 -17 -14 -37 4 -37 34 1 19 1
19 11 2 8 -14 14 -16 25 -6z m218 -50 c3 -4 3 -10 0 -13 -7 -8 -54 3 -54 13 0
12 47 12 54 0z m-2458 -16 c19 -10 42 -13 67 -9 23 3 43 1 52 -6 8 -6 23 -9
33 -6 11 4 24 0 31 -8 7 -8 19 -12 27 -9 19 7 44 -15 44 -38 0 -22 -18 -24
-105 -8 -33 5 -80 12 -105 15 -25 2 -54 6 -65 9 -11 2 -23 4 -26 4 -4 1 -9 9
-12 19 -2 9 -8 25 -12 35 -6 13 -2 17 18 17 13 0 38 -7 53 -15z m2652 -23 c3
-30 1 -33 -20 -30 -18 2 -24 10 -26 36 -3 30 -1 33 20 30 18 -2 24 -10 26 -36z
m-2818 18 c0 -5 -5 -10 -11 -10 -5 0 -7 5 -4 10 3 6 8 10 11 10 2 0 4 -4 4
-10z m524 -32 c-6 -10 -4 -10 7 -2 8 5 20 9 27 8 6 -1 18 -2 25 -3 36 -3 42
-101 7 -101 -10 0 -20 6 -23 13 -3 9 -8 9 -21 -2 -22 -19 -30 -9 -31 42 -1 42
2 57 11 57 3 0 2 -6 -2 -12z m2484 -25 c0 -24 -3 -32 -10 -25 -6 6 -16 8 -24
5 -9 -3 -12 4 -12 25 1 24 5 30 23 30 20 0 23 -6 23 -35z m257 21 c39 -8 107
-21 153 -29 46 -7 89 -18 96 -24 7 -6 15 -8 18 -5 6 6 113 -11 163 -26 17 -5
76 -17 133 -27 105 -18 144 -39 50 -27 -29 4 -59 7 -65 7 -7 0 -13 3 -13 6 0
4 -17 6 -37 6 -21 0 -70 7 -108 17 -39 9 -85 18 -104 20 -18 1 -35 6 -37 10
-3 5 -10 6 -15 3 -5 -4 -9 -2 -9 3 0 5 -24 10 -52 10 -80 2 -92 4 -107 15 -17
15 -65 22 -178 30 -19 1 6 27 26 27 9 0 48 -7 86 -16z m-2542 -36 c12 -6 44
-16 72 -22 39 -9 51 -16 53 -33 3 -17 -3 -21 -35 -25 -21 -3 -42 -2 -48 1 -5
3 -30 11 -55 16 -41 9 -45 13 -48 43 -3 27 0 32 18 32 12 0 31 -5 43 -12z
m2505 -47 c2 -12 1 -34 -3 -48 -5 -20 -11 -24 -38 -21 -27 2 -32 7 -32 28 0
14 -4 31 -8 38 -14 21 3 33 41 30 30 -2 38 -7 40 -27z m76 -14 c10 10 56 -19
56 -36 0 -12 2 -13 8 -3 6 8 29 12 70 11 62 -2 62 -2 62 -32 0 -29 0 -29 -47
-23 -61 9 -154 27 -173 34 -8 3 -18 4 -22 4 -5 -1 -8 11 -8 28 0 27 2 29 24
20 13 -5 27 -6 30 -3z m-871 -56 c-1 -40 -2 -40 -35 -34 -23 4 -28 11 -28 35
0 16 4 27 8 24 4 -2 14 -1 22 4 24 15 35 5 33 -29z m133 4 c20 -20 9 -55 -17
-55 -27 0 -42 41 -21 58 20 15 20 15 38 -3z m188 -38 c12 -48 -2 -65 -41 -51
-24 8 -28 16 -31 52 l-3 43 33 -3 c29 -3 34 -8 42 -41z m1336 25 c3 -4 16 -8
30 -8 14 -1 36 -4 50 -7 14 -3 40 -6 58 -6 18 -1 31 -5 28 -10 -3 -4 7 -6 22
-4 16 3 22 1 16 -4 -7 -5 9 -9 40 -10 42 -1 206 -30 281 -50 26 -6 39 -9 103
-18 28 -4 52 -12 52 -17 0 -5 7 -16 15 -24 24 -25 18 -43 -12 -40 -16 2 -39
-4 -52 -13 -20 -13 -23 -13 -19 -1 3 8 10 14 16 13 14 -3 9 24 -7 40 -10 9
-12 9 -9 -3 2 -10 -4 -15 -18 -14 -16 1 -20 -5 -20 -25 1 -14 -3 -27 -9 -27
-5 -1 -9 2 -7 7 1 5 -1 8 -5 7 -5 -2 -8 2 -8 7 0 6 3 9 6 8 3 -1 6 5 6 13 0
12 -3 12 -17 -1 -23 -21 -35 -19 -19 3 13 16 13 16 -7 0 -24 -21 -41 -24 -25
-5 8 10 7 14 -4 14 -7 0 -13 -3 -12 -6 1 -3 -2 -6 -8 -6 -5 0 -9 8 -9 18 2 21
-9 14 -12 -8 -1 -8 2 -18 7 -21 6 -3 5 -12 -3 -22 -10 -14 -10 -15 2 -5 11 10
17 10 29 0 11 -9 13 -9 8 0 -5 8 1 11 20 9 18 -1 27 -7 25 -17 -2 -8 0 -11 4
-7 4 4 13 3 20 -3 8 -7 14 -7 19 1 3 6 12 7 18 3 9 -5 9 -3 1 8 -13 17 -12 39
1 40 6 1 10 -13 10 -31 -1 -28 1 -30 11 -15 12 16 13 16 11 -2 -1 -15 -8 -19
-36 -17 -20 1 -46 3 -59 3 -16 1 -21 5 -16 14 6 9 5 9 -7 0 -8 -7 -20 -8 -28
-4 -7 5 -22 6 -32 4 -10 -3 -19 -1 -19 4 0 4 -30 10 -67 11 -38 2 -69 7 -71
12 -2 5 -9 7 -17 4 -7 -3 -16 0 -20 6 -6 9 -10 9 -16 -1 -7 -11 -9 -11 -9 -1
0 7 -4 10 -10 7 -5 -3 -10 -2 -10 4 0 5 -8 8 -17 7 -10 -2 -41 2 -70 9 -33 8
-55 9 -62 2 -12 -12 -33 1 -25 16 5 9 4 9 -5 1 -15 -13 -102 2 -113 20 -11 16
-10 28 1 21 6 -3 6 6 1 24 -6 21 -4 35 6 49 9 14 11 23 4 27 -6 4 -9 1 -8 -6
6 -26 -21 -18 -36 12 l-16 32 63 -7 c34 -4 64 -11 67 -14z m-1198 -47 c7 -33
-13 -59 -39 -51 -11 3 -20 12 -20 19 0 6 -4 19 -7 28 -4 10 0 23 9 33 21 21
51 6 57 -29z m106 -36 c-2 -19 -7 -33 -13 -32 -12 3 -19 49 -10 71 10 26 27
-2 23 -39z m932 16 c0 -30 -25 -34 -33 -6 -5 22 0 31 20 31 7 0 13 -11 13 -25z
m-746 -16 c17 -20 17 -22 -4 -41 -17 -16 -24 -17 -35 -8 -18 15 -19 42 -3 58
16 16 21 15 42 -9z m122 -53 c-7 -28 -26 -36 -26 -11 0 8 -7 15 -15 15 -19 0
-19 9 2 32 15 16 19 17 31 4 9 -9 12 -23 8 -40z m-840 19 c-1 -8 -5 -17 -8
-21 -5 -4 -4 16 1 34 3 9 9 -1 7 -13z m962 7 c8 -6 10 -19 6 -40 -8 -42 -50
-46 -60 -7 -11 46 16 70 54 47z m3392 -12 c0 -5 -20 -10 -45 -10 -25 0 -45 5
-45 10 0 6 20 10 45 10 25 0 45 -4 45 -10z m75 0 c4 -6 -7 -10 -25 -10 -18 0
-29 4 -25 10 3 6 15 10 25 10 10 0 22 -4 25 -10z m116 0 c32 0 59 -4 59 -9 0
-10 -104 -14 -132 -5 -10 3 -18 10 -18 16 0 5 7 7 16 4 9 -3 42 -6 75 -6z
m-3436 -30 c9 -28 -5 -51 -29 -48 -13 2 -22 12 -24 26 -7 46 39 65 53 22z
m2264 4 c2 -2 -20 -4 -50 -4 -36 0 -49 3 -40 9 13 8 79 4 90 -5z m61 6 c0 -5
-4 -10 -10 -10 -5 0 -10 5 -10 10 0 6 5 10 10 10 6 0 10 -4 10 -10z m90 -10
c0 -5 -4 -10 -10 -10 -5 0 -10 5 -10 10 0 6 5 10 10 10 6 0 10 -4 10 -10z
m1713 -10 c-3 -11 -9 -17 -14 -15 -10 7 -1 35 11 35 5 0 6 -9 3 -20z m70 -5
c-3 -8 -9 -15 -14 -15 -10 0 -12 24 -3 33 11 11 24 -3 17 -18z m-4093 3 c22 0
40 -4 40 -9 0 -5 15 -9 34 -9 18 0 46 -4 62 -10 35 -11 77 -18 122 -19 29 -1
33 -4 30 -23 -2 -13 -8 -22 -14 -21 -55 10 -64 10 -64 1 0 -6 -9 -3 -19 6 -13
11 -27 15 -40 11 -13 -4 -21 -2 -21 5 0 6 -4 9 -10 5 -5 -3 -40 0 -77 6 -37 7
-77 13 -88 14 -11 1 -23 3 -27 4 -5 0 -8 13 -8 27 0 21 4 24 20 19 11 -3 38
-6 60 -7z m2480 2 c0 -5 -9 -10 -20 -10 -11 0 -20 5 -20 10 0 6 9 10 20 10 11
0 20 -4 20 -10z m45 0 c3 -6 -4 -10 -17 -10 -18 0 -20 2 -8 10 19 12 18 12 25
0z m45 0 c0 -5 -4 -10 -10 -10 -5 0 -10 5 -10 10 0 6 5 10 10 10 6 0 10 -4 10
-10z m1490 2 c0 -13 -12 -22 -22 -16 -10 6 -1 24 13 24 5 0 9 -4 9 -8z m70 -8
c0 -8 -5 -12 -10 -9 -6 4 -8 11 -5 16 9 14 15 11 15 -7z m-1340 -5 c0 -5 -34
-9 -75 -9 -41 0 -75 4 -75 10 0 5 33 9 75 9 41 0 75 -5 75 -10z m54 2 c14 -5
16 -10 8 -15 -15 -9 -52 2 -52 15 0 11 17 11 44 0z m1406 5 c0 -3 -4 -8 -10
-11 -5 -3 -10 -1 -10 4 0 6 5 11 10 11 6 0 10 -2 10 -4z m-5687 -23 c-7 -2
-21 -2 -30 0 -10 3 -4 5 12 5 17 0 24 -2 18 -5z m37 -3 c0 -5 -2 -10 -4 -10
-3 0 -8 5 -11 10 -3 6 -1 10 4 10 6 0 11 -4 11 -10z m2628 -7 c2 -8 -5 -13
-17 -13 -12 0 -21 6 -21 16 0 18 31 15 38 -3z m120 -15 c-5 -34 -38 -37 -38
-4 0 20 5 26 21 26 15 0 20 -5 17 -22z m1082 2 c0 -5 -4 -10 -10 -10 -5 0 -10
5 -10 10 0 6 5 10 10 10 6 0 10 -4 10 -10z m-2935 -10 c15 0 26 -33 16 -48
-11 -18 -65 -9 -69 11 -6 28 6 50 24 43 9 -3 21 -6 29 -6z m2625 0 c0 -5 -13
-10 -30 -10 -16 0 -30 5 -30 10 0 6 14 10 30 10 17 0 30 -4 30 -10z m68 -1
c-2 -6 -7 -10 -11 -10 -4 1 -16 1 -27 1 -11 0 -20 5 -20 10 0 6 14 10 31 10
17 0 29 -5 27 -11z m338 -1 c3 -4 -13 -8 -35 -8 -22 0 -43 4 -46 10 -4 6 10 9
35 8 22 -1 43 -5 46 -10z m-1076 -19 c0 -11 -4 -17 -10 -14 -5 3 -10 13 -10
21 0 8 5 14 10 14 6 0 10 -9 10 -21z m550 7 c0 -16 -18 -31 -27 -22 -8 8 5 36
17 36 5 0 10 -6 10 -14z m-2380 -10 c30 -3 35 -7 38 -29 4 -30 1 -31 -71 -21
-38 6 -48 11 -55 34 -9 26 -9 27 22 23 17 -3 47 -6 66 -7z m1449 -9 c8 -10 7
-14 -2 -14 -8 0 -14 6 -14 14 0 7 1 13 2 13 2 0 8 -6 14 -13z m-1319 -1 c0 -9
-30 -14 -35 -6 -4 6 3 10 14 10 12 0 21 -2 21 -4z m2917 -17 c-8 -5 -22 -6
-31 -3 -27 11 -17 21 15 16 24 -4 28 -7 16 -13z m-2949 -35 c-3 -14 -5 -12
-10 9 -3 19 -2 25 4 19 6 -6 8 -18 6 -28z m180 14 c2 -5 10 -4 18 3 8 7 14 7
14 1 0 -5 9 -12 20 -15 21 -5 27 -31 10 -42 -9 -6 -92 7 -142 21 -11 3 -18 15
-18 29 0 24 2 24 48 18 26 -3 49 -10 50 -15z m2182 -14 c0 -28 -28 -44 -41
-23 -12 19 -11 25 7 43 20 20 34 12 34 -20z m-2004 1 c12 -30 -4 -62 -31 -62
-22 0 -25 4 -25 33 0 31 7 38 43 43 4 0 10 -6 13 -14z m2074 5 c0 -5 -11 -10
-24 -10 -14 0 -28 5 -31 10 -4 6 7 10 24 10 17 0 31 -4 31 -10z m80 -2 c0 -11
-42 -10 -60 2 -11 8 -5 10 23 8 20 -1 37 -6 37 -10z m386 -7 c-3 -5 -15 -7
-26 -4 -28 7 -25 13 6 13 14 0 23 -4 20 -9z m-2476 -12 c0 -4 12 -9 28 -11 36
-4 44 -43 10 -51 -13 -4 -24 -2 -26 3 -2 6 -15 10 -28 10 -20 0 -24 5 -24 28
0 21 5 28 20 28 11 0 20 -4 20 -7z m3467 5 c-3 -3 -12 -4 -19 -1 -8 3 -5 6 6
6 11 1 17 -2 13 -5z m241 -6 c-2 -5 -7 -9 -11 -9 -4 1 -14 1 -22 1 -8 0 -15 4
-15 9 0 5 11 9 25 9 14 0 24 -5 23 -10z m24 -10 c-7 -7 -12 -8 -12 -2 0 14 12
26 19 19 2 -3 -1 -11 -7 -17z m98 11 c0 -4 -4 -10 -9 -13 -11 -7 -72 4 -67 13
6 9 76 9 76 0z m-4213 -5 c-3 -3 -12 -4 -19 -1 -8 3 -5 6 6 6 11 1 17 -2 13
-5z m4333 2 c0 -3 -4 -8 -10 -11 -5 -3 -10 -1 -10 4 0 6 5 11 10 11 6 0 10 -2
10 -4z m-4375 -36 c72 -10 189 -26 260 -35 72 -9 137 -18 145 -20 8 -3 60 -9
115 -15 98 -10 249 -28 414 -50 46 -6 107 -12 135 -14 28 -2 74 -9 101 -14 28
-6 137 -23 244 -38 106 -16 189 -30 183 -32 -8 -2 -92 7 -512 58 -41 5 -208
27 -370 49 -162 22 -369 50 -460 61 -256 32 -534 71 -545 76 -21 9 165 -7 290
-26z m1387 0 c-3 -30 -7 -34 -27 -27 -18 8 -20 43 -2 50 21 9 32 1 29 -23z
m1015 24 c-3 -3 -12 -4 -19 -1 -8 3 -5 6 6 6 11 1 17 -2 13 -5z m70 0 c-3 -3
-12 -4 -19 -1 -8 3 -5 6 6 6 11 1 17 -2 13 -5z m58 -4 c3 -5 1 -10 -4 -10 -6
0 -11 5 -11 10 0 6 2 10 4 10 3 0 8 -4 11 -10z m68 -2 c-2 -5 -13 -8 -24 -8
-10 0 -19 3 -19 8 0 4 11 7 24 7 13 0 22 -3 19 -7z m-1128 -8 c8 -13 -4 -50
-16 -50 -13 0 -22 27 -15 45 6 17 22 20 31 5z m111 -5 c11 -27 -5 -65 -27 -65
-25 0 -33 19 -20 53 11 29 38 36 47 12z m91 -40 c0 -13 -27 -40 -27 -28 0 4
-5 1 -10 -7 -7 -11 -10 -4 -10 26 0 22 3 44 7 47 7 8 40 -23 40 -38z m944 12
c-13 -13 -26 -3 -16 12 3 6 11 8 17 5 6 -4 6 -10 -1 -17z m-198 6 c-7 -2 -21
-2 -30 0 -10 3 -4 5 12 5 17 0 24 -2 18 -5z m60 0 c-7 -2 -21 -2 -30 0 -10 3
-4 5 12 5 17 0 24 -2 18 -5z m-753 -33 c0 -16 -4 -30 -10 -30 -5 0 -10 14 -10
30 0 17 5 30 10 30 6 0 10 -13 10 -30z m1200 -10 c0 -5 -7 -10 -15 -10 -8 0
-15 5 -15 10 0 6 7 10 15 10 8 0 15 -4 15 -10z m50 0 c0 -5 -9 -10 -20 -10
-11 0 -20 5 -20 10 0 6 9 10 20 10 11 0 20 -4 20 -10z m50 0 c0 -5 -7 -10 -16
-10 -8 0 -12 5 -9 10 3 6 10 10 16 10 5 0 9 -4 9 -10z m-686 -21 c-3 -5 -10
-7 -15 -3 -5 3 -7 10 -3 15 3 5 10 7 15 3 5 -3 7 -10 3 -15z m91 11 c-3 -5
-17 -10 -30 -10 -13 0 -27 5 -30 10 -4 6 8 10 30 10 22 0 34 -4 30 -10z m145
6 c0 -11 -19 -15 -25 -6 -3 5 1 10 9 10 9 0 16 -2 16 -4z m-2817 -24 c4 9 8
10 14 2 4 -6 23 -14 41 -17 24 -5 34 -3 39 8 5 14 7 14 17 0 6 -9 29 -18 51
-21 47 -6 46 -5 38 -32 -5 -19 -12 -22 -54 -22 -27 0 -49 4 -49 8 0 4 -20 7
-45 6 -36 -1 -49 3 -60 19 -14 20 -15 20 -15 2 0 -13 -3 -16 -10 -9 -6 6 -7
25 -4 44 6 29 9 31 20 16 9 -13 13 -14 17 -4z m3177 -12 c0 -5 -11 -10 -25
-10 -14 0 -25 5 -25 10 0 6 11 10 25 10 14 0 25 -4 25 -10z m100 0 c0 -5 -18
-10 -41 -10 -24 0 -38 4 -34 10 3 6 22 10 41 10 19 0 34 -4 34 -10z m135 0 c4
-6 -13 -10 -45 -10 -32 0 -49 4 -45 10 3 6 24 10 45 10 21 0 42 -4 45 -10z
m70 0 c4 -6 -7 -10 -27 -9 -31 1 -32 1 -8 9 14 4 26 8 27 9 1 1 5 -3 8 -9z
m-848 -6 c-3 -3 -12 -4 -19 -1 -8 3 -5 6 6 6 11 1 17 -2 13 -5z m93 -4 c0 -5
-7 -7 -15 -4 -8 4 -15 8 -15 10 0 2 7 4 15 4 8 0 15 -4 15 -10z m54 2 c2 -4
-4 -9 -15 -9 -10 -1 -19 2 -19 8 0 11 27 12 34 1z m46 -6 c-1 -5 4 -12 11 -16
21 -14 3 -38 -25 -33 -27 6 -37 33 -11 33 9 0 12 6 8 16 -4 11 -2 15 6 13 7
-3 12 -8 11 -13z m700 10 c0 -11 -19 -15 -25 -6 -3 5 1 10 9 10 9 0 16 -2 16
-4z m114 -4 c2 -4 -9 -9 -25 -10 -16 -1 -29 2 -29 8 0 12 47 14 54 2z m66 -2
c12 -8 11 -10 -7 -10 -13 0 -23 5 -23 10 0 13 11 13 30 0z m40 0 c0 -5 -5 -10
-11 -10 -5 0 -7 5 -4 10 3 6 8 10 11 10 2 0 4 -4 4 -10z m83 -7 c-13 -2 -33
-2 -45 0 -13 2 -3 4 22 4 25 0 35 -2 23 -4z m-1133 -24 c0 -5 -20 -9 -45 -9
-25 0 -45 4 -45 9 0 5 20 9 45 9 25 0 45 -4 45 -9z m-31 -55 c2 -2 -12 -4 -32
-4 -20 0 -37 4 -37 10 0 8 58 3 69 -6z m-103 -21 c-10 -10 -19 5 -10 18 6 11
8 11 12 0 2 -7 1 -15 -2 -18z m599 7 c4 -6 -7 -10 -24 -10 -17 0 -31 5 -31 10
0 6 11 10 24 10 14 0 28 -4 31 -10z m-1270 -10 c19 -8 19 -9 -2 -9 -12 -1 -25
4 -28 9 -7 12 2 12 30 0z m1343 3 c-10 -2 -26 -2 -35 0 -10 3 -2 5 17 5 19 0
27 -2 18 -5z m82 -3 c0 -5 -4 -10 -9 -10 -6 0 -13 5 -16 10 -3 6 1 10 9 10 9
0 16 -4 16 -10z m106 3 c-10 -11 -86 -12 -86 -1 0 4 21 8 47 8 25 0 43 -3 39
-7z m44 -3 c-20 -13 -33 -13 -25 0 3 6 14 10 23 10 15 0 15 -2 2 -10z m140 0
c0 -3 -27 -6 -60 -7 -33 0 -60 3 -60 9 0 5 27 8 60 6 33 -2 60 -5 60 -8z m54
1 c7 -11 -14 -20 -31 -13 -7 2 -10 8 -7 13 7 12 31 12 38 0z m-994 -17 c0 -2
-11 -4 -25 -4 -14 0 -25 4 -25 9 0 4 11 6 25 3 14 -2 25 -6 25 -8z m1098 9
c-10 -2 -28 -2 -40 0 -13 2 -5 4 17 4 22 1 32 -1 23 -4z m49 1 c-3 -3 -12 -4
-19 -1 -8 3 -5 6 6 6 11 1 17 -2 13 -5z m156 -5 c-6 -6 -38 -6 -79 0 l-69 9
78 0 c46 0 75 -4 70 -9z m57 7 c0 -11 -19 -15 -25 -6 -3 5 1 10 9 10 9 0 16
-2 16 -4z m185 -6 c-7 -12 -165 -11 -165 2 0 4 39 8 86 8 54 0 83 -4 79 -10z
m209 1 c4 -5 -35 -9 -89 -10 -55 0 -95 4 -95 9 0 13 177 13 184 1z m-1696 -8
c-10 -2 -26 -2 -35 0 -10 3 -2 5 17 5 19 0 27 -2 18 -5z m59 1 c-3 -3 -12 -4
-19 -1 -8 3 -5 6 6 6 11 1 17 -2 13 -5z m1801 -1 c-26 -2 -71 -2 -100 0 -29 2
-8 3 47 3 55 0 79 -1 53 -3z m-2098 -16 c0 -22 -26 -51 -38 -43 -16 10 -15 22
4 40 19 19 34 21 34 3z m350 -12 c0 -8 -4 -15 -10 -15 -5 0 -10 7 -10 15 0 8
5 15 10 15 6 0 10 -7 10 -15z m-413 -32 c-3 -10 -5 -4 -5 12 0 17 2 24 5 18 2
-7 2 -21 0 -30z m343 28 c0 -13 -168 -13 -175 -1 -4 6 29 10 84 10 50 0 91 -4
91 -9z m-884 -32 c3 -5 -5 -10 -18 -10 -17 -1 -18 -3 -5 -6 24 -6 21 -23 -5
-24 l-23 -2 23 -4 c32 -6 27 -25 -5 -21 -25 3 -28 7 -28 38 -1 19 0 38 2 41 4
9 52 -1 59 -12z m1294 11 c0 -5 -15 -10 -34 -10 -19 0 -38 5 -41 10 -4 6 10
10 34 10 23 0 41 -4 41 -10z m118 -1 c-17 -11 -98 -9 -98 3 0 4 25 8 56 7 32
-1 50 -5 42 -10z m-721 -25 c7 -19 -20 -49 -36 -40 -12 8 -15 39 -4 49 12 12
33 7 40 -9z m72 -10 c2 -2 -10 -4 -27 -4 -18 0 -32 5 -32 10 0 9 47 4 59 -6z
m11 -32 c0 -4 -16 -9 -35 -10 -19 -2 -35 2 -35 8 0 5 16 10 35 10 19 0 35 -4
35 -8z m70 -2 c0 -5 -11 -10 -25 -10 -14 0 -25 5 -25 10 0 6 11 10 25 10 14 0
25 -4 25 -10z m410 -2 c0 -4 -17 -8 -37 -7 -33 1 -35 2 -13 8 33 10 50 9 50
-1z m70 2 c0 -5 -7 -10 -16 -10 -8 0 -12 5 -9 10 3 6 10 10 16 10 5 0 9 -4 9
-10z m55 0 c-3 -5 -13 -10 -21 -10 -8 0 -12 5 -9 10 3 6 13 10 21 10 8 0 12
-4 9 -10z m-595 -32 c0 -4 -21 -7 -47 -7 -41 1 -43 2 -18 8 40 9 65 8 65 -1z
m160 -3 c0 -10 -11 -15 -35 -15 -33 0 -43 8 -28 23 13 14 63 7 63 -8z m290 -5
c0 -5 -9 -10 -21 -10 -11 0 -17 5 -14 10 3 6 13 10 21 10 8 0 14 -4 14 -10z
m75 0 c3 -6 -1 -7 -9 -4 -18 7 -21 14 -7 14 6 0 13 -4 16 -10z m85 0 c11 -8 9
-9 -12 -8 -16 1 -28 6 -28 10 0 11 22 10 40 -2z m100 0 c0 -5 -13 -10 -30 -10
-16 0 -30 5 -30 10 0 6 14 10 30 10 17 0 30 -4 30 -10z m105 0 c4 -6 -6 -10
-22 -9 -25 0 -26 1 -8 9 11 5 21 9 22 9 1 1 5 -3 8 -9z m75 0 c0 -5 -10 -10
-22 -9 -22 0 -22 1 -3 9 11 5 21 9 23 9 1 1 2 -3 2 -9z m35 0 c3 -5 1 -10 -4
-10 -6 0 -11 5 -11 10 0 6 2 10 4 10 3 0 8 -4 11 -10z m60 -1 c-4 -5 -15 -9
-26 -9 -26 0 -17 15 10 17 12 1 19 -2 16 -8z m-994 -48 c-13 -8 -81 -2 -81 8
0 3 21 4 46 2 26 -2 42 -6 35 -10z m447 12 c-10 -2 -26 -2 -35 0 -10 3 -2 5
17 5 19 0 27 -2 18 -5z m209 1 c-3 -3 -12 -4 -19 -1 -8 3 -5 6 6 6 11 1 17 -2
13 -5z m-759 -16 c-6 -18 -28 -21 -28 -4 0 9 7 16 16 16 9 0 14 -5 12 -12z
m798 -21 c4 -4 -7 -7 -25 -7 -18 0 -30 4 -27 8 6 10 42 9 52 -1z m173 -3 c2
-2 -26 -4 -63 -4 -37 0 -65 4 -62 9 5 8 116 4 125 -5z m-416 -1 c-7 -2 -21 -2
-30 0 -10 3 -4 5 12 5 17 0 24 -2 18 -5z m75 0 c-10 -2 -26 -2 -35 0 -10 3 -2
5 17 5 19 0 27 -2 18 -5z m89 1 c-3 -3 -12 -4 -19 -1 -8 3 -5 6 6 6 11 1 17
-2 13 -5z m-639 -11 c-10 -2 -28 -2 -40 0 -13 2 -5 4 17 4 22 1 32 -1 23 -4z
m70 0 c-10 -2 -26 -2 -35 0 -10 3 -2 5 17 5 19 0 27 -2 18 -5z m59 1 c-3 -3
-12 -4 -19 -1 -8 3 -5 6 6 6 11 1 17 -2 13 -5z m48 -24 c9 -15 -43 -36 -56
-23 -6 6 -8 16 -5 22 9 14 53 14 61 1z m361 3 c-11 -11 -45 -13 -51 -3 -4 6 7
10 26 10 18 0 29 -3 25 -7z m76 -5 c-9 -9 -15 -9 -24 0 -9 9 -7 12 12 12 19 0
21 -3 12 -12z m80 -1 c-23 -7 -36 -7 -44 1 -8 8 1 10 33 10 l44 -1 -33 -10z
m108 3 c0 -5 -11 -10 -25 -10 -14 0 -25 5 -25 10 0 6 11 10 25 10 14 0 25 -4
25 -10z m42 -2 c-9 -9 -15 -9 -24 0 -9 9 -7 12 12 12 19 0 21 -3 12 -12z m48
8 c0 -3 -4 -8 -10 -11 -5 -3 -10 -1 -10 4 0 6 5 11 10 11 6 0 10 -2 10 -4z
m100 -4 c0 -5 -18 -9 -40 -10 -22 -1 -40 3 -40 8 0 6 18 10 40 10 22 0 40 -4
40 -8z m90 -2 c-20 -13 -70 -13 -70 0 0 6 19 10 43 10 31 0 38 -3 27 -10z
m105 -1 c-7 -11 -62 -12 -69 -1 -2 4 13 9 35 9 23 1 37 -2 34 -8z m75 1 c0 -5
-11 -10 -25 -10 -14 0 -25 5 -25 10 0 6 11 10 25 10 14 0 25 -4 25 -10z m30 6
c0 -3 -4 -8 -10 -11 -5 -3 -10 -1 -10 4 0 6 5 11 10 11 6 0 10 -2 10 -4z m356
-3 c-11 -11 -336 -13 -336 -2 0 5 75 9 172 9 94 0 168 -3 164 -7z m64 -2 c0
-6 -9 -9 -20 -8 -11 1 -20 5 -20 9 0 4 9 8 20 8 11 0 20 -4 20 -9z m100 -1
c-20 -13 -90 -13 -90 0 0 6 24 10 53 10 37 0 48 -3 37 -10z m136 1 c-7 -11
-116 -12 -116 0 0 5 27 9 61 9 33 0 58 -4 55 -9z m-1919 -8 c-12 -11 -68 -13
-85 -3 -13 7 -3 9 37 10 30 0 51 -3 48 -7z m491 -30 c-10 -2 -26 -2 -35 0 -10
3 -2 5 17 5 19 0 27 -2 18 -5z m80 0 c-10 -2 -26 -2 -35 0 -10 3 -2 5 17 5 19
0 27 -2 18 -5z m112 3 c0 -8 -48 -12 -66 -5 -13 5 -7 8 24 8 23 1 42 -1 42 -3z
m107 -2 c-3 -3 -12 -4 -19 -1 -8 3 -5 6 6 6 11 1 17 -2 13 -5z m40 0 c-3 -3
-12 -4 -19 -1 -8 3 -5 6 6 6 11 1 17 -2 13 -5z m-947 -23 c0 -11 -5 -23 -11
-27 -15 -9 -33 12 -26 30 9 23 37 20 37 -3z m85 -1 c-3 -5 -19 -10 -36 -10
-16 0 -29 5 -29 10 0 6 16 10 36 10 21 0 33 -4 29 -10z m122 4 c-3 -3 -12 -4
-19 -1 -8 3 -5 6 6 6 11 1 17 -2 13 -5z m-160 -40 c-3 -3 -12 -4 -19 -1 -8 3
-5 6 6 6 11 1 17 -2 13 -5z m86 -1 c-7 -2 -21 -2 -30 0 -10 3 -4 5 12 5 17 0
24 -2 18 -5z m417 -13 c0 -5 -5 -10 -11 -10 -5 0 -7 5 -4 10 3 6 8 10 11 10 2
0 4 -4 4 -10z m110 0 c0 -5 -2 -10 -4 -10 -3 0 -8 5 -11 10 -3 6 -1 10 4 10 6
0 11 -4 11 -10z m110 6 c0 -9 -30 -14 -35 -6 -4 6 3 10 14 10 12 0 21 -2 21
-4z m110 0 c0 -9 -40 -13 -46 -5 -3 5 6 9 20 9 14 0 26 -2 26 -4z m60 0 c0 -2
-7 -6 -15 -10 -8 -3 -15 -1 -15 4 0 6 7 10 15 10 8 0 15 -2 15 -4z m258 -1
c-7 -7 -229 -8 -236 -1 -3 3 50 6 118 6 68 0 121 -2 118 -5z m-950 -22 c-3
-12 -12 -17 -28 -15 -29 3 -34 7 -25 21 3 6 17 11 31 11 19 0 25 -5 22 -17z
m-153 -3 c-3 -5 -17 -10 -31 -10 -13 0 -24 5 -24 10 0 6 14 10 31 10 17 0 28
-4 24 -10z m755 -10 c0 -5 -5 -10 -11 -10 -5 0 -7 5 -4 10 3 6 8 10 11 10 2 0
4 -4 4 -10z m60 0 c0 -5 -5 -10 -11 -10 -5 0 -7 5 -4 10 3 6 8 10 11 10 2 0 4
-4 4 -10z m-342 -7 c-10 -2 -26 -2 -35 0 -10 3 -2 5 17 5 19 0 27 -2 18 -5z
m85 0 c-7 -2 -21 -2 -30 0 -10 3 -4 5 12 5 17 0 24 -2 18 -5z m150 0 c-7 -2
-19 -2 -25 0 -7 3 -2 5 12 5 14 0 19 -2 13 -5z m-809 -29 c7 -19 -10 -44 -30
-44 -18 0 -19 46 -1 53 21 9 25 8 31 -9z m66 -4 c0 -5 -11 -10 -25 -10 -14 0
-25 5 -25 10 0 6 11 10 25 10 14 0 25 -4 25 -10z m660 6 c0 -3 -4 -8 -10 -11
-5 -3 -10 -1 -10 4 0 6 5 11 10 11 6 0 10 -2 10 -4z m-127 -13 c-7 -2 -21 -2
-30 0 -10 3 -4 5 12 5 17 0 24 -2 18 -5z m382 -23 c4 -6 -12 -9 -42 -9 -47 2
-47 2 -13 9 19 4 38 8 42 9 4 0 10 -3 13 -9z m140 0 c-3 -5 -15 -10 -26 -10
-10 0 -19 5 -19 10 0 6 12 10 26 10 14 0 23 -4 19 -10z m135 0 c-20 -13 -90
-13 -90 0 0 6 24 10 53 10 37 0 48 -3 37 -10z m-1157 -7 c-7 -2 -19 -2 -25 0
-7 3 -2 5 12 5 14 0 19 -2 13 -5z m115 0 c-15 -2 -42 -2 -60 0 -18 2 -6 4 27
4 33 0 48 -2 33 -4z m395 0 c-7 -2 -21 -2 -30 0 -10 3 -4 5 12 5 17 0 24 -2
18 -5z m54 1 c-3 -3 -12 -4 -19 -1 -8 3 -5 6 6 6 11 1 17 -2 13 -5z m141 -1
c-10 -2 -28 -2 -40 0 -13 2 -5 4 17 4 22 1 32 -1 23 -4z m75 0 c-7 -2 -21 -2
-30 0 -10 3 -4 5 12 5 17 0 24 -2 18 -5z m160 0 c-7 -2 -19 -2 -25 0 -7 3 -2
5 12 5 14 0 19 -2 13 -5z m-795 -32 c-4 -21 -58 -28 -58 -7 0 13 17 22 48 22
7 1 11 -6 10 -15z m-138 -1 c0 -5 -22 -10 -50 -10 -27 0 -50 5 -50 10 0 6 23
10 50 10 28 0 50 -4 50 -10z m485 -40 c-3 -5 -13 -10 -21 -10 -8 0 -14 5 -14
10 0 6 9 10 21 10 11 0 17 -4 14 -10z m52 4 c-3 -3 -12 -4 -19 -1 -8 3 -5 6 6
6 11 1 17 -2 13 -5z m66 -1 c-7 -2 -21 -2 -30 0 -10 3 -4 5 12 5 17 0 24 -2
18 -5z m-653 -19 c0 -2 -11 -4 -25 -4 -14 0 -25 4 -25 9 0 4 11 6 25 3 14 -2
25 -6 25 -8z m45 6 c3 -5 -3 -10 -14 -10 -12 0 -21 5 -21 10 0 6 6 10 14 10 8
0 18 -4 21 -10z m-121 -7 c-5 -5 -12 -12 -16 -18 -4 -6 -8 -2 -8 8 0 9 7 17
17 17 9 0 12 -3 7 -7z m741 -13 c-3 -5 -11 -10 -16 -10 -6 0 -7 5 -4 10 3 6
11 10 16 10 6 0 7 -4 4 -10z m75 0 c0 -5 -11 -10 -25 -10 -14 0 -25 5 -25 10
0 6 11 10 25 10 14 0 25 -4 25 -10z m135 0 c-28 -12 -85 -12 -85 0 0 6 24 10
53 9 38 0 47 -3 32 -9z m-337 -7 c-10 -2 -26 -2 -35 0 -10 3 -2 5 17 5 19 0
27 -2 18 -5z m-515 -10 c-7 -2 -19 -2 -25 0 -7 3 -2 5 12 5 14 0 19 -2 13 -5z
m70 0 c-7 -2 -21 -2 -30 0 -10 3 -4 5 12 5 17 0 24 -2 18 -5z m60 0 c-7 -2
-21 -2 -30 0 -10 3 -4 5 12 5 17 0 24 -2 18 -5z m27 -29 c0 -9 -11 -14 -30
-14 -29 0 -41 15 -19 22 27 9 49 6 49 -8z m-120 -4 c0 -6 -27 -10 -60 -10 -33
0 -60 4 -60 10 0 6 27 10 60 10 33 0 60 -4 60 -10z m690 -22 c0 -5 -20 -8 -45
-8 -25 0 -45 3 -45 8 0 4 20 7 45 7 25 0 45 -3 45 -7z m-227 -5 c-7 -2 -21 -2
-30 0 -10 3 -4 5 12 5 17 0 24 -2 18 -5z m54 1 c-3 -3 -12 -4 -19 -1 -8 3 -5
6 6 6 11 1 17 -2 13 -5z m1203 -5 c0 -5 -21 -9 -46 -9 -25 0 -43 4 -40 9 8 12
86 12 86 0z m63 4 c-7 -2 -21 -2 -30 0 -10 3 -4 5 12 5 17 0 24 -2 18 -5z
m-528 -12 c3 -6 -19 -10 -55 -10 -34 0 -58 5 -55 10 8 12 102 12 110 0z m112
2 c-12 -11 -79 -15 -72 -3 3 5 22 10 42 10 20 0 33 -3 30 -7z m108 -4 c-50 -5
-83 -5 -89 1 -7 7 22 10 80 9 l89 -2 -80 -8z m138 4 c-7 -2 -19 -2 -25 0 -7 3
-2 5 12 5 14 0 19 -2 13 -5z m-1683 -13 c11 -7 7 -10 -17 -10 -18 0 -33 5 -33
10 0 13 30 13 50 0z m925 0 c-3 -5 -17 -10 -31 -10 -14 0 -22 4 -19 10 3 6 17
10 31 10 14 0 22 -4 19 -10z m254 5 c-9 -8 -199 -12 -199 -4 0 5 46 9 102 9
56 0 99 -2 97 -5z m-1259 -20 c0 -8 -4 -15 -10 -15 -5 0 -10 7 -10 15 0 8 5
15 10 15 6 0 10 -7 10 -15z m630 3 c0 -4 -15 -8 -32 -8 -24 0 -29 3 -19 9 17
11 51 10 51 -1z m103 5 c-7 -2 -19 -2 -25 0 -7 3 -2 5 12 5 14 0 19 -2 13 -5z
m100 0 c-13 -2 -35 -2 -50 0 -16 2 -5 4 22 4 28 0 40 -2 28 -4z m82 -2 c-18
-7 -55 -4 -55 5 0 2 17 4 38 3 28 0 32 -2 17 -8z m-832 -28 c-7 -2 -19 -2 -25
0 -7 3 -2 5 12 5 14 0 19 -2 13 -5z m70 0 c-7 -2 -21 -2 -30 0 -10 3 -4 5 12
5 17 0 24 -2 18 -5z m485 -8 c-10 -10 -88 -14 -88 -4 0 5 21 9 47 9 25 0 44
-2 41 -5z m-378 -20 c0 -10 -10 -15 -30 -15 -20 0 -30 5 -30 15 0 10 10 15 30
15 20 0 30 -5 30 -15z m-200 -5 c0 -5 -9 -10 -20 -10 -11 0 -20 5 -20 10 0 6
9 10 20 10 11 0 20 -4 20 -10z m75 0 c-3 -5 -19 -10 -36 -10 -16 0 -29 5 -29
10 0 6 16 10 36 10 21 0 33 -4 29 -10z m1040 -30 c-3 -5 -18 -10 -33 -10 -21
0 -24 2 -12 10 20 13 53 13 45 0z m-1175 -20 c0 -5 -8 -16 -17 -26 -17 -17
-18 -17 -21 0 -6 27 6 46 23 40 8 -3 15 -10 15 -14z m870 12 c0 -4 -9 -8 -20
-8 -11 0 -20 4 -20 8 0 4 9 8 20 8 11 0 20 -4 20 -8z m113 1 c-18 -2 -48 -2
-65 0 -18 2 -4 4 32 4 36 0 50 -2 33 -4z m90 0 c-7 -2 -21 -2 -30 0 -10 3 -4
5 12 5 17 0 24 -2 18 -5z m-1003 -13 c0 -5 -11 -10 -25 -10 -14 0 -25 5 -25
10 0 6 11 10 25 10 14 0 25 -4 25 -10z m553 3 c-7 -2 -21 -2 -30 0 -10 3 -4 5
12 5 17 0 24 -2 18 -5z m100 0 c-13 -2 -35 -2 -50 0 -16 2 -5 4 22 4 28 0 40
-2 28 -4z m70 0 c-7 -2 -21 -2 -30 0 -10 3 -4 5 12 5 17 0 24 -2 18 -5z m127
-29 c0 -2 -9 -4 -20 -4 -11 0 -20 4 -20 9 0 5 9 7 20 4 11 -3 20 -7 20 -9z
m199 12 c-7 -7 -129 -10 -136 -3 -3 4 27 7 67 7 40 0 71 -2 69 -4z m-445 -18
c-3 -4 -12 -8 -20 -8 -8 0 -13 4 -10 8 3 5 12 9 20 9 8 0 13 -4 10 -9z m104 5
c-10 -2 -26 -2 -35 0 -10 3 -2 5 17 5 19 0 27 -2 18 -5z m-715 -10 c-7 -2 -21
-2 -30 0 -10 3 -4 5 12 5 17 0 24 -2 18 -5z m992 -13 c-3 -5 -22 -10 -41 -10
-46 0 -36 15 11 18 23 2 34 -1 30 -8z m154 6 c-2 -2 -35 -7 -73 -11 -48 -5
-66 -4 -62 4 4 6 36 11 73 11 37 0 64 -2 62 -4z m-961 -18 c-7 -20 -58 -23
-58 -4 0 11 10 16 31 16 20 0 29 -4 27 -12z m675 5 c-7 -2 -21 -2 -30 0 -10 3
-4 5 12 5 17 0 24 -2 18 -5z m-833 -10 c0 -5 -11 -9 -25 -9 -14 -1 -25 2 -25
7 0 5 11 9 25 9 14 0 25 -3 25 -7z m583 0 c-7 -2 -19 -2 -25 0 -7 3 -2 5 12 5
14 0 19 -2 13 -5z m100 0 c-7 -2 -21 -2 -30 0 -10 3 -4 5 12 5 17 0 24 -2 18
-5z m10 -30 c-7 -2 -21 -2 -30 0 -10 3 -4 5 12 5 17 0 24 -2 18 -5z m-793 -22
c0 -5 -7 -14 -15 -21 -12 -10 -15 -10 -15 2 0 8 3 18 7 21 9 10 23 9 23 -2z
m79 5 c-10 -10 -59 -14 -59 -5 0 5 14 9 32 9 17 0 29 -2 27 -4z m1001 -6 c0
-5 -22 -10 -50 -10 -27 0 -50 5 -50 10 0 6 23 10 50 10 28 0 50 -4 50 -10z
m56 3 c-10 -11 -36 -12 -36 -2 0 5 10 9 22 9 12 0 18 -3 14 -7z m72 0 c-10 -2
-28 -2 -40 0 -13 2 -5 4 17 4 22 1 32 -1 23 -4z m49 1 c-3 -3 -12 -4 -19 -1
-8 3 -5 6 6 6 11 1 17 -2 13 -5z m-467 -14 c0 -5 -19 -9 -42 -9 l-43 2 40 7
c22 4 41 8 43 9 1 0 2 -3 2 -9z m67 4 c-3 -3 -12 -4 -19 -1 -8 3 -5 6 6 6 11
1 17 -2 13 -5z m66 -1 c-7 -2 -21 -2 -30 0 -10 3 -4 5 12 5 17 0 24 -2 18 -5z
m-250 -10 c-7 -2 -19 -2 -25 0 -7 3 -2 5 12 5 14 0 19 -2 13 -5z m-486 -9 c-3
-3 -12 -4 -19 -1 -8 3 -5 6 6 6 11 1 17 -2 13 -5z m-130 -10 c-3 -3 -12 -4
-19 -1 -8 3 -5 6 6 6 11 1 17 -2 13 -5z m193 -18 c0 -14 -21 -26 -46 -26 -8 0
-14 6 -14 14 0 13 9 17 53 25 4 0 7 -5 7 -13z m1680 10 c0 -3 -4 -8 -10 -11
-5 -3 -10 -1 -10 4 0 6 5 11 10 11 6 0 10 -2 10 -4z m90 0 c0 -2 -13 -6 -30
-8 -16 -3 -30 -1 -30 4 0 4 14 8 30 8 17 0 30 -2 30 -4z m-280 -16 c0 -5 -12
-10 -27 -9 l-28 1 25 8 c14 4 26 8 28 9 1 1 2 -3 2 -9z m73 3 c-7 -2 -19 -2
-25 0 -7 3 -2 5 12 5 14 0 19 -2 13 -5z m-1730 -10 c-13 -2 -35 -2 -50 0 -16
2 -5 4 22 4 28 0 40 -2 28 -4z m1575 0 c-10 -2 -26 -2 -35 0 -10 3 -2 5 17 5
19 0 27 -2 18 -5z m377 -13 c4 -6 -7 -10 -27 -9 -31 1 -32 1 -8 9 14 4 26 8
27 9 1 1 5 -3 8 -9z m53 -12 c-6 -18 -28 -21 -28 -4 0 9 7 16 16 16 9 0 14 -5
12 -12z m-198 -7 c0 -5 -11 -11 -25 -13 -28 -6 -35 8 -7 15 28 8 32 7 32 -2z
m-685 -37 c0 -10 -8 -20 -17 -22 -18 -3 -26 27 -11 42 12 11 28 0 28 -20z
m813 19 c-10 -2 -26 -2 -35 0 -10 3 -2 5 17 5 19 0 27 -2 18 -5z m-1028 -29
c0 -8 -7 -14 -15 -14 -15 0 -21 21 -9 33 10 9 24 -2 24 -19z m70 12 c0 -16
-18 -31 -27 -22 -8 8 5 36 17 36 5 0 10 -6 10 -14z m-1170 -6 c0 -5 -4 -10
-10 -10 -5 0 -10 5 -10 10 0 6 5 10 10 10 6 0 10 -4 10 -10z m50 6 c0 -3 -4
-8 -10 -11 -5 -3 -10 -1 -10 4 0 6 5 11 10 11 6 0 10 -2 10 -4z m900 -21 c0
-18 -5 -25 -20 -25 -22 0 -26 20 -8 38 19 19 28 14 28 -13z m75 4 c0 -7 -8
-15 -17 -17 -18 -3 -25 18 -11 32 10 10 28 1 28 -15z m-147 -1 c-7 -19 -38
-22 -38 -4 0 10 9 16 21 16 12 0 19 -5 17 -12z m-238 -13 c0 -8 -4 -15 -10
-15 -5 0 -10 7 -10 15 0 8 5 15 10 15 6 0 10 -7 10 -15z m70 0 c0 -8 -4 -15
-10 -15 -5 0 -10 7 -10 15 0 8 5 15 10 15 6 0 10 -7 10 -15z m-700 -29 c0 -8
-5 -18 -11 -22 -14 -8 -33 11 -25 25 10 16 36 13 36 -3z m70 10 c0 -3 -4 -8
-10 -11 -5 -3 -10 -1 -10 4 0 6 5 11 10 11 6 0 10 -2 10 -4z m70 -12 c0 -2
-11 -4 -25 -4 -14 0 -25 4 -25 9 0 4 11 6 25 3 14 -2 25 -6 25 -8z m40 6 c12
-8 11 -10 -7 -10 -13 0 -23 5 -23 10 0 13 11 13 30 0z m120 6 c0 -2 -13 -6
-30 -8 -16 -3 -30 -1 -30 4 0 4 14 8 30 8 17 0 30 -2 30 -4z m1940 -264 c0
-14 -11 -21 -26 -15 -8 3 -11 9 -8 14 7 11 34 12 34 1z m-90 -12 c0 -5 -7 -10
-15 -10 -8 0 -15 5 -15 10 0 6 7 10 15 10 8 0 15 -4 15 -10z m-2683 -65 c-4
-8 -11 -15 -17 -15 -14 0 -13 27 3 33 16 6 21 1 14 -18z m-132 5 c7 -12 -12
-40 -26 -40 -5 0 -9 11 -9 25 0 25 23 35 35 15z m52 -22 c-3 -7 -5 -2 -5 12 0
14 2 19 5 13 2 -7 2 -19 0 -25z m-307 -3 c0 -8 -4 -15 -10 -15 -5 0 -10 7 -10
15 0 8 5 15 10 15 6 0 10 -7 10 -15z m-117 -5 c24 0 37 -5 37 -13 0 -9 -18
-14 -60 -15 -55 -1 -60 0 -60 19 0 17 4 20 23 15 12 -3 39 -6 60 -6z m-143
-25 c0 -11 -13 -15 -52 -17 -29 -1 -72 -3 -95 -4 -34 -1 -43 2 -43 16 0 14 13
17 95 19 80 1 95 -1 95 -14z m-260 -15 c0 -12 -15 -16 -64 -18 -60 -3 -85 6
-73 26 3 4 35 7 71 7 52 0 66 -3 66 -15z m-250 1 c37 8 62 -3 44 -21 -10 -10
-121 -17 -130 -7 -4 3 -4 13 -1 21 5 12 12 13 29 7 12 -4 38 -4 58 0z m1897
-17 c-9 -9 -28 6 -21 18 4 6 10 6 17 -1 6 -6 8 -13 4 -17z m-2167 8 c0 -5 19
-6 43 -2 24 3 49 4 55 2 19 -6 14 -32 -5 -32 -10 0 -41 -3 -69 -6 -54 -6 -69
2 -58 30 6 16 34 23 34 8z m-380 -42 c0 -38 -2 -40 -30 -40 -32 0 -36 11 -24
58 4 15 14 22 30 22 21 0 24 -5 24 -40z m1760 19 c0 -5 -4 -9 -10 -9 -5 0 -10
7 -10 16 0 8 5 12 10 9 6 -3 10 -10 10 -16z m-1492 -9 c-2 -11 -22 -16 -82
-20 -77 -5 -92 -1 -83 23 3 8 32 12 86 12 68 1 81 -2 79 -15z m1413 -10 c-7
-4 -38 -8 -69 -9 -31 -1 -70 -3 -87 -4 -20 -1 -30 3 -30 12 0 12 19 16 89 18
50 2 92 6 95 9 3 3 7 0 10 -7 2 -6 -2 -15 -8 -19z m-1803 13 c-18 -3 -28 -10
-27 -21 0 -11 3 -12 6 -4 8 19 45 15 41 -5 -2 -11 -12 -17 -28 -17 -20 -1 -26
5 -28 27 -3 25 -1 27 30 26 30 -2 31 -2 6 -6z m1098 -115 c-5 -115 -13 -219
-21 -278 -2 -14 -4 -31 -4 -37 -1 -7 -10 -13 -21 -13 -11 0 -19 3 -19 8 6 39
1 42 -83 37 -46 -3 -83 -5 -83 -6 0 0 -9 -2 -20 -3 -11 -2 -32 -7 -46 -10 -29
-8 -46 6 -26 22 6 5 48 13 92 17 136 11 169 19 173 36 2 13 -6 18 -37 21 -23
2 -42 1 -43 -3 -2 -3 -27 -9 -55 -12 -41 -5 -53 -3 -53 7 0 13 11 16 136 31
l52 7 6 91 c3 51 7 115 8 142 2 61 4 65 30 65 20 0 20 -3 14 -122z m474 99 c0
-14 -57 -34 -82 -29 -10 2 -18 11 -18 19 0 9 3 14 6 11 3 -3 17 -3 31 1 42 11
63 11 63 -2z m-150 -19 c0 -13 -8 -18 -32 -19 -18 0 -52 -2 -75 -4 -36 -3 -43
0 -43 14 0 25 2 26 79 26 61 0 71 -2 71 -17z m-200 -14 c0 -8 -10 -15 -22 -15
-13 -1 -33 -3 -45 -4 -16 -2 -23 3 -23 15 0 24 4 26 49 22 27 -3 41 -9 41 -18z
m658 -40 c-4 -23 -48 -32 -48 -10 0 8 7 22 16 31 19 19 38 7 32 -21z m40 -8
c1 -28 -3 -48 -13 -56 -13 -11 -15 -8 -15 18 0 29 15 82 23 82 2 0 5 -20 5
-44z m-118 9 c0 -8 -4 -15 -10 -15 -5 0 -10 7 -10 15 0 8 5 15 10 15 6 0 10
-7 10 -15z m-1467 -2 c16 -15 -18 -33 -64 -33 -36 0 -49 4 -49 14 0 10 13 16
38 19 20 2 44 4 53 5 9 1 19 -1 22 -5z m1415 -5 c-3 -7 -20 -14 -38 -16 -30
-3 -32 -2 -21 12 16 19 65 22 59 4z m-1558 -17 c0 -12 -6 -19 -17 -19 -10 0
-51 -3 -90 -7 -59 -6 -73 -5 -73 6 0 11 -2 11 -10 -1 -5 -8 -12 -11 -16 -7
-22 22 42 42 144 46 56 2 62 0 62 -18z m1468 7 c-7 -20 -68 -23 -68 -4 0 12
10 16 36 16 24 0 34 -4 32 -12z m162 -8 c0 -5 -5 -10 -11 -10 -5 0 -7 5 -4 10
3 6 8 10 11 10 2 0 4 -4 4 -10z m-632 -32 c-7 -20 -68 -23 -68 -4 0 12 10 16
36 16 24 0 34 -4 32 -12z m-837 -23 c0 -5 -5 -11 -12 -14 -7 -2 -9 1 -5 8 4 6
2 11 -4 11 -6 0 -13 -6 -16 -14 -8 -22 -43 -27 -53 -8 -9 15 -12 15 -33 -4
-19 -18 -31 -20 -63 -15 -27 4 -41 12 -43 24 -2 9 2 17 8 17 5 0 10 -5 10 -11
0 -5 3 -8 8 -5 4 2 39 7 77 11 39 4 72 9 75 12 8 8 51 -2 51 -12z m-261 -25
c0 -18 -7 -20 -55 -20 -41 0 -55 4 -55 14 0 11 14 16 48 19 26 2 50 4 55 5 4
1 7 -7 7 -18z m1290 -20 c0 -11 -4 -20 -10 -20 -5 0 -10 9 -10 20 0 11 5 20
10 20 6 0 10 -9 10 -20z m-40 1 c0 -10 -34 -21 -67 -21 -25 0 -31 15 -10 23
21 9 77 7 77 -2z m-110 -17 c0 -8 -3 -13 -7 -11 -5 3 -30 1 -58 -3 -27 -4 -54
-5 -59 -2 -18 10 23 27 73 29 40 2 51 0 51 -13z m-892 -21 c-9 -11 -26 -14
-65 -11 -29 3 -54 0 -56 -5 -1 -5 -39 -11 -84 -13 -45 -2 -88 -5 -95 -6 -7 -2
-13 4 -13 12 0 10 11 15 35 16 19 0 45 4 58 8 14 5 29 3 38 -5 12 -10 20 -10
42 3 16 9 44 15 68 13 22 -2 47 1 54 5 20 13 33 1 18 -17z m-330 -14 c-2 -6
-8 -10 -13 -10 -5 0 -11 4 -13 10 -2 6 4 11 13 11 9 0 15 -5 13 -11z m1869
-19 c3 -11 4 -22 2 -25 -2 -3 -44 -8 -94 -10 -49 -3 -114 -9 -144 -15 -30 -5
-56 -9 -58 -7 -1 2 6 13 17 25 14 14 34 22 58 23 20 1 49 3 65 5 15 1 27 -2
27 -8 0 -7 5 -6 14 2 8 6 28 13 45 14 17 1 34 5 37 9 13 13 26 7 31 -13z
m-1319 -9 c3 -8 0 -11 -7 -7 -6 4 -17 4 -23 -1 -20 -13 -202 -32 -208 -22 -3
5 -28 0 -56 -10 -53 -20 -104 -18 -104 5 0 8 6 14 13 15 6 0 39 3 72 5 33 3
69 5 80 5 11 0 23 5 27 12 6 9 8 9 8 -1 0 -9 5 -10 19 -3 10 6 30 8 45 5 15
-2 35 0 44 6 24 14 84 8 90 -9z m562 0 c0 -11 -4 -23 -10 -26 -6 -4 -10 5 -10
19 0 14 5 26 10 26 6 0 10 -9 10 -19z m1340 5 c0 -3 -4 -8 -10 -11 -5 -3 -10
-1 -10 4 0 6 5 11 10 11 6 0 10 -2 10 -4z m-1630 -46 c0 -16 -6 -20 -32 -19
-62 2 -188 -8 -195 -14 -10 -11 -113 -8 -113 3 0 6 6 10 13 10 6 0 50 5 97 11
47 5 108 12 135 15 28 4 52 8 54 10 13 13 41 2 41 -16z m-822 -1 c-2 -6 -8
-10 -13 -10 -5 0 -11 4 -13 10 -2 6 4 11 13 11 9 0 15 -5 13 -11z m122 -3 c0
-15 -90 -30 -104 -16 -17 17 7 30 55 30 35 0 49 -4 49 -14z m1058 -23 c-2 -10
-9 -17 -15 -16 -6 1 -25 -2 -42 -7 -32 -9 -41 0 -18 18 10 9 27 13 70 21 5 0
7 -7 5 -16z m35 -3 c-3 -11 -7 -20 -9 -20 -2 0 -4 9 -4 20 0 11 4 20 9 20 5 0
7 -9 4 -20z m-759 -5 c-4 -8 -9 -15 -13 -15 -3 0 -29 -3 -57 -6 -33 -4 -54 -2
-58 5 -5 7 -14 6 -29 -4 -29 -18 -122 -31 -131 -17 -9 15 11 25 63 29 25 2 75
7 111 11 117 14 120 14 114 -3z m1206 -1 c0 -12 -9 -15 -43 -13 -24 2 -48 -1
-55 -5 -6 -4 -39 -8 -72 -10 -33 -1 -63 -6 -67 -9 -12 -13 -24 -7 -21 11 3 13
21 19 88 28 131 17 170 17 170 -2z m-1629 -37 c-13 -13 -26 -3 -16 12 3 6 11
8 17 5 6 -4 6 -10 -1 -17z m1354 13 c12 -19 -70 -37 -200 -44 -16 -1 -35 -4
-40 -8 -6 -4 -11 2 -12 13 -1 15 5 19 30 20 18 1 41 3 52 4 11 2 42 6 70 10
27 4 52 8 54 11 8 8 40 4 46 -6z m1316 -7 c13 -16 12 -17 -3 -4 -10 7 -18 15
-18 17 0 8 8 3 21 -13z m-2561 -2 c0 -11 -22 -18 -62 -20 -27 -1 -35 8 -21 22
10 11 83 8 83 -2z m550 -1 c0 -6 8 -5 20 2 22 14 33 8 25 -13 -4 -10 -24 -15
-68 -16 -63 -2 -115 -8 -174 -19 -26 -5 -33 -3 -33 9 0 20 13 24 90 25 36 1
79 6 95 11 40 13 45 13 45 1z m-260 -41 c0 -11 -4 -18 -8 -15 -5 3 -28 0 -51
-6 -34 -9 -45 -8 -51 2 -7 11 -12 11 -23 1 -29 -23 -128 -32 -135 -12 -3 10 0
12 12 8 8 -3 15 -2 13 4 -1 6 22 12 53 14 79 6 164 17 169 21 11 10 21 2 21
-17z m1416 -25 c-11 -8 -31 -14 -45 -14 -14 0 -62 -7 -106 -14 -44 -8 -81 -13
-84 -11 -2 2 4 12 14 21 20 21 97 37 106 22 4 -7 9 -6 13 1 4 6 22 11 39 11
18 0 39 5 47 10 24 15 39 -9 16 -26z m44 22 c0 -3 -4 -8 -10 -11 -5 -3 -10 -1
-10 4 0 6 5 11 10 11 6 0 10 -2 10 -4z m620 -75 c84 -61 210 -177 210 -193 0
-22 -33 -3 -69 40 -23 26 -71 73 -107 103 -69 56 -160 139 -134 122 8 -6 53
-38 100 -72z m-2383 56 c11 4 14 2 11 -8 -2 -7 -20 -17 -39 -20 -34 -7 -49 -4
-49 10 0 10 54 29 58 20 2 -5 10 -5 19 -2z m2932 -327 c112 -124 216 -237 229
-252 14 -16 23 -28 20 -28 -3 0 -65 66 -139 148 -73 81 -159 174 -190 207
-100 107 -244 272 -183 210 33 -33 151 -161 263 -285z m-3027 315 c0 -5 -5
-11 -11 -13 -6 -2 -11 4 -11 13 0 9 5 15 11 13 6 -2 11 -8 11 -13z m981 1 c12
-31 -17 -45 -113 -56 -52 -6 -160 -19 -240 -30 -721 -98 -717 -98 -735 -79 -9
9 -13 23 -10 32 8 19 28 24 155 37 52 6 127 15 165 20 39 5 191 23 339 40 148
17 292 34 320 39 79 13 113 13 119 -3z m87 0 c0 -8 -4 -18 -10 -21 -5 -3 -10
3 -10 14 0 12 5 21 10 21 6 0 10 -6 10 -14z m370 -31 c0 -14 -4 -25 -10 -25
-11 0 -14 33 -3 43 11 11 13 8 13 -18z m-40 -5 c0 -5 -6 -11 -12 -11 -47 -5
-58 -7 -72 -12 -10 -4 -16 -1 -16 8 0 7 10 16 23 18 43 8 77 7 77 -3z m426
-27 c-10 -10 -19 5 -10 18 6 11 8 11 12 0 2 -7 1 -15 -2 -18z m-1676 3 c0 -5
-3 -6 -7 -3 -3 4 -11 3 -17 -2 -19 -14 -64 -22 -71 -11 -3 5 -12 10 -18 10 -7
0 -6 -4 3 -10 13 -8 12 -10 -2 -10 -29 0 -20 28 10 33 48 6 102 3 102 -7z
m1067 -1 c-2 -5 -15 -10 -30 -10 -14 0 -29 -3 -33 -7 -11 -11 -24 -10 -24 2 0
6 10 14 23 19 29 11 68 9 64 -4z m-152 -15 c-3 -5 -1 -10 5 -10 6 0 8 -4 5
-10 -4 -6 -11 -5 -19 3 -15 13 -12 27 5 27 6 0 7 -4 4 -10z m-337 -42 c-2 -13
-11 -22 -23 -23 -11 -2 -44 -6 -72 -10 -36 -5 -53 -4 -53 3 0 20 24 28 107 35
12 1 25 5 29 10 12 12 16 8 12 -15z m1110 -16 c-2 -8 -10 -16 -18 -18 -90 -18
-92 -18 -88 2 2 14 14 20 43 24 62 8 66 8 63 -8z m-1310 -17 c4 -16 -60 -29
-69 -14 -4 7 -6 16 -4 19 6 9 70 5 73 -5z m-118 -14 c0 -6 -4 -12 -9 -16 -12
-7 -214 -34 -220 -29 -2 2 -1 10 2 18 4 9 22 14 54 15 26 0 62 5 78 10 40 12
95 13 95 2z m1423 -30 c-4 -14 -18 -20 -60 -25 -31 -4 -59 -4 -62 0 -10 9 32
35 50 31 9 -3 23 -1 30 4 25 16 48 11 42 -10z m-1703 -16 c0 -8 -4 -17 -10
-20 -5 -3 -10 -2 -10 4 0 7 -8 7 -26 1 -39 -15 -54 -12 -54 11 0 15 5 19 15
15 8 -3 25 -2 37 3 28 10 48 4 48 -14z m-152 -30 c-2 -2 -22 -6 -46 -8 -36 -5
-42 -3 -42 13 0 15 9 19 43 22 29 2 43 -1 45 -10 2 -8 2 -15 0 -17z m461 -21
c12 -10 -16 -24 -50 -24 -36 0 -51 15 -33 33 5 5 74 -2 83 -9z m41 6 c0 -5 -4
-10 -10 -10 -5 0 -10 5 -10 10 0 6 5 10 10 10 6 0 10 -4 10 -10z m-140 -25 c0
-15 -14 -20 -83 -29 -35 -4 -38 -3 -35 17 3 19 9 22 45 22 23 0 45 3 49 7 10
10 24 0 24 -17z m-180 -30 c0 -13 -18 -17 -113 -31 -47 -6 -49 -6 -45 17 3 22
7 24 45 21 23 -2 50 1 59 6 21 12 54 4 54 -13z m-225 -25 c0 -16 -5 -30 -12
-30 -6 0 -10 8 -8 18 2 9 4 23 4 30 2 26 16 10 16 -18z m2880 -71 c40 -78 29
-90 -15 -15 -45 78 -45 77 -25 69 9 -3 27 -27 40 -54z m-2825 27 c0 -2 -11 -6
-25 -8 -14 -3 -25 -1 -25 3 0 5 11 9 25 9 14 0 25 -2 25 -4z m-359 -113 c5
-48 2 -62 -13 -72 -10 -6 -18 -7 -18 -2 0 5 -9 11 -20 14 -11 3 -20 10 -20 15
0 6 9 14 20 17 11 3 20 13 20 21 0 14 29 21 31 7z m-191 -63 c0 -45 -3 -52
-26 -60 -14 -6 -41 -10 -60 -10 -31 0 -34 3 -34 30 0 49 19 78 54 83 70 9 66
11 66 -43z m-227 -7 c-11 -28 -29 -43 -55 -44 l-23 -2 23 -4 c12 -2 20 -8 17
-13 -3 -5 -13 -6 -22 -3 -11 4 -14 3 -9 -5 4 -7 2 -12 -3 -12 -6 0 -11 6 -11
14 0 7 -3 27 -6 44 -6 31 -6 31 42 35 27 2 50 4 51 5 1 1 -1 -6 -4 -15z m337
7 c0 -5 -5 -10 -11 -10 -5 0 -7 5 -4 10 3 6 8 10 11 10 2 0 4 -4 4 -10z m-592
-22 c-2 -8 5 -12 15 -10 21 4 59 -26 51 -39 -3 -5 -10 -7 -15 -4 -5 4 -14 -5
-20 -19 -7 -14 -16 -23 -20 -20 -5 3 -9 0 -9 -5 0 -16 -16 -13 -35 5 -18 18
-12 52 13 72 9 6 12 12 8 12 -4 0 -4 5 -1 10 9 14 16 13 13 -2z m686 -28 c-31
-12 -144 -28 -144 -20 0 8 96 27 140 28 23 1 24 0 4 -8z m-174 -25 c0 -6 -65
-22 -125 -30 -72 -10 -47 6 32 21 81 14 93 15 93 9z m4180 -25 c0 -5 -5 -10
-11 -10 -5 0 -7 5 -4 10 3 6 8 10 11 10 2 0 4 -4 4 -10z m-5111 -11 c26 -9 31
-16 31 -44 0 -37 -7 -41 -78 -51 -43 -5 -50 -4 -54 13 -10 36 17 72 68 93 1 0
15 -5 33 -11z m-239 -34 c24 -13 30 -22 30 -49 0 -43 -13 -53 -81 -61 -43 -5
-57 -4 -61 7 -8 21 3 78 16 78 6 0 19 9 29 20 20 24 29 25 67 5z m755 -3 c-12
-10 -132 -32 -166 -31 -13 1 12 9 56 19 93 20 123 23 110 12z m5880 -2 c-3 -5
-11 -10 -16 -10 -6 0 -7 5 -4 10 3 6 11 10 16 10 6 0 7 -4 4 -10z m-1941 -49
c-6 -6 -24 19 -24 34 1 6 7 1 15 -9 8 -11 12 -22 9 -25z m-4918 -18 c5 -28 3
-39 -10 -48 -18 -13 -114 -28 -127 -19 -11 6 -11 65 -1 81 4 6 32 13 62 16 30
2 58 4 62 5 4 1 10 -14 14 -35z m6519 -3 c3 -5 -1 -10 -9 -10 -9 0 -16 5 -16
10 0 6 4 10 9 10 6 0 13 -4 16 -10z m-155 -30 c0 -5 -7 -10 -16 -10 -8 0 -12
5 -9 10 3 6 10 10 16 10 5 0 9 -4 9 -10z m550 0 c13 -9 13 -10 0 -10 -8 0 -22
5 -30 10 -13 9 -13 10 0 10 8 0 22 -5 30 -10z m1280 -11 c0 -6 -4 -8 -9 -5 -5
3 -14 -1 -20 -8 -8 -9 -8 -17 -2 -20 5 -3 12 0 14 6 3 8 6 6 6 -4 1 -10 -6
-18 -14 -18 -14 0 -19 12 -16 33 0 4 -3 7 -9 7 -5 0 -10 -5 -10 -11 0 -5 -4
-8 -9 -4 -5 3 -12 1 -15 -4 -4 -5 -1 -13 5 -17 8 -4 9 -3 5 4 -5 8 -1 10 9 6
13 -5 10 -10 -15 -25 -22 -14 -35 -16 -48 -9 -9 6 -30 15 -47 21 -27 10 -28
12 -10 19 11 5 34 9 50 10 17 1 45 7 64 14 43 15 71 17 71 5z m-3594 -30 c8
-14 -10 -11 -32 6 -18 13 -18 14 4 8 12 -3 25 -9 28 -14z m1658 -40 c-5 -9
-51 6 -72 24 -12 9 -11 13 3 23 14 10 22 8 46 -13 15 -14 26 -30 23 -34z
m-6832 39 c2 -6 2 -24 0 -40 -4 -25 -9 -28 -43 -29 -22 -1 -45 -2 -51 -3 -8
-1 -13 12 -13 34 0 32 3 36 35 41 56 10 68 10 72 -3z m608 -18 c0 -5 -15 -11
-32 -14 -18 -3 -60 -10 -92 -16 -127 -22 -115 -7 15 20 115 23 109 22 109 10z
m4370 1 c0 -5 18 -11 40 -15 25 -4 43 -13 47 -24 3 -9 30 -42 59 -73 68 -73
104 -156 74 -174 -13 -8 -94 40 -218 130 -26 18 -45 23 -97 24 -68 0 -71 -2
-67 -51 2 -21 -9 -23 -26 -6 -9 9 -12 7 -12 -11 0 -12 5 -31 11 -43 9 -17 8
-19 -8 -16 -24 4 -29 35 -10 73 8 16 23 50 33 75 10 25 36 62 58 83 31 29 47
37 78 37 21 0 38 -4 38 -9z m265 -5 c49 -21 44 -38 -5 -19 -22 9 -40 20 -40
25 0 11 5 10 45 -6z m1315 -15 c0 -5 14 -14 30 -21 49 -20 43 -28 -8 -12 -56
18 -56 18 -47 31 8 13 25 14 25 2z m-6850 -16 c30 -36 -38 -94 -79 -68 -25 16
-25 49 1 67 28 20 62 20 78 1z m5621 -24 c24 -20 24 -20 2 -14 -12 3 -28 11
-34 19 -17 21 5 17 32 -5z m1075 4 c14 -13 12 -15 -17 -15 -27 0 -30 2 -19 15
7 8 14 15 17 15 2 0 11 -7 19 -15z m674 -5 c0 -5 -7 -10 -16 -10 -8 0 -12 5
-9 10 3 6 10 10 16 10 5 0 9 -4 9 -10z m-7676 -6 c9 -3 16 -17 16 -30 0 -18
-7 -25 -27 -30 -16 -4 -38 -16 -50 -27 -27 -24 -43 -15 -20 11 10 10 17 28 17
40 0 30 32 48 64 36z m6877 -54 c5 0 9 -4 9 -9 0 -4 -20 -2 -45 7 -25 8 -45
20 -45 27 0 24 24 23 49 -1 13 -13 28 -24 32 -24z m523 41 c3 -5 0 -11 -8 -14
-15 -6 -26 1 -26 15 0 11 27 10 34 -1z m122 -10 c-4 -5 0 -12 6 -14 7 -3 3 -6
-9 -6 -23 -1 -30 9 -16 22 10 10 25 8 19 -2z m2020 -16 c16 -8 38 -15 49 -15
38 0 -8 -27 -57 -34 -55 -6 -65 3 -42 39 19 30 15 29 50 10z m-9841 -55 l0
-45 -57 -3 -58 -3 0 39 c0 37 2 39 43 49 67 16 72 14 72 -37z m6959 35 c3 -8
17 -20 31 -27 31 -14 34 -48 5 -48 -11 0 -23 6 -26 14 -3 8 -16 17 -30 20 -26
7 -31 25 -12 44 16 16 25 15 32 -3z m709 -5 c6 -22 0 -25 -23 -10 -13 9 -13
11 0 20 8 5 16 10 16 10 1 0 4 -9 7 -20z m567 -10 c0 -5 -5 -10 -11 -10 -5 0
-7 5 -4 10 3 6 8 10 11 10 2 0 4 -4 4 -10z m-730 -20 c0 -13 -28 -25 -38 -16
-3 4 0 11 8 16 20 13 30 12 30 0z m-165 -61 c-6 -8 -45 0 -45 10 0 4 6 13 12
19 10 10 15 9 25 -4 7 -9 10 -20 8 -25z m-156 -41 l23 -26 -46 16 c-42 16 -44
18 -29 34 9 10 19 15 22 11 4 -5 17 -20 30 -35z m-214 -2 c9 -14 30 -29 46
-35 16 -5 29 -17 29 -25 0 -14 -8 -13 -57 5 -73 27 -78 32 -61 58 17 27 24 26
43 -3z m817 -6 c18 -11 29 -20 23 -20 -16 1 -82 39 -68 40 7 0 27 -9 45 -20z
m648 0 c0 -5 -5 -10 -11 -10 -5 0 -7 5 -4 10 3 6 8 10 11 10 2 0 4 -4 4 -10z
m-832 -28 c2 -7 -2 -10 -12 -6 -9 3 -16 11 -16 16 0 13 23 5 28 -10z m1952 14
c0 -2 -11 -6 -25 -8 -14 -3 -25 -1 -25 3 0 5 11 9 25 9 14 0 25 -2 25 -4z
m-3900 -31 c0 -14 -4 -25 -10 -25 -5 0 -10 11 -10 25 0 14 5 25 10 25 6 0 10
-11 10 -25z m1770 -15 c0 -5 7 -10 15 -10 8 0 15 -5 15 -11 0 -5 4 -8 8 -5 9
5 39 -11 32 -18 -5 -4 -90 22 -99 29 -5 6 10 25 20 25 5 0 9 -4 9 -10z m-590
-15 c18 -9 30 -24 30 -35 0 -34 -16 -30 -43 10 -29 45 -28 46 13 25z m-2330
-40 c-13 -14 -29 -25 -37 -25 -10 0 -10 5 -1 25 8 17 19 25 36 25 l25 0 -23
-25z m170 0 c-21 -23 -50 -34 -50 -19 0 21 24 44 47 44 l26 0 -23 -25z m2570
17 c0 -5 16 -17 35 -28 39 -21 48 -38 13 -25 -49 19 -74 37 -70 49 4 14 22 17
22 4z m-2857 -22 c-4 -13 -19 -24 -47 -31 -22 -6 -50 -15 -61 -20 -11 -5 -42
-13 -69 -19 -51 -11 -103 -39 -76 -41 8 -1 20 0 25 1 23 4 -9 -16 -47 -30 -26
-9 -47 -26 -58 -45 -24 -42 -93 -107 -168 -156 -35 -23 -61 -43 -59 -46 3 -2
33 12 68 31 37 20 89 39 122 44 70 11 63 2 -18 -26 -111 -38 -150 -60 -201
-113 -28 -30 -57 -63 -63 -74 -11 -19 -11 -18 -5 4 5 21 4 23 -12 16 -51 -21
-64 -18 -70 14 -5 26 -9 29 -25 21 -10 -6 -35 -10 -56 -10 -47 0 -259 52 -301
74 -17 9 -40 16 -52 16 -30 0 -93 61 -81 79 7 11 13 7 25 -17 24 -47 47 -55
100 -37 31 11 52 13 64 6 24 -13 129 -47 172 -56 30 -7 32 -9 15 -16 -11 -4
-15 -8 -10 -8 6 -1 3 -6 -5 -11 -11 -7 -5 -10 23 -10 21 0 36 4 33 8 -2 4 3 8
12 9 31 1 108 20 124 29 9 5 39 44 68 87 52 78 101 120 174 151 21 9 52 27 69
42 34 28 236 127 282 138 27 6 28 5 13 -7 -24 -19 -22 -29 5 -25 12 2 22 10
22 18 0 17 20 28 52 29 16 1 20 -3 16 -19z m405 -17 c-31 -30 -47 -26 -26 6 7
12 22 21 33 21 18 0 17 -2 -7 -27z m3769 11 c-3 -3 -12 -4 -19 -1 -8 3 -5 6 6
6 11 1 17 -2 13 -5z m-3681 -42 c-18 -16 -18 -16 -6 6 6 13 14 21 18 18 3 -4
-2 -14 -12 -24z m-1581 -24 c-83 -42 -125 -84 -125 -123 0 -39 -7 -47 -29 -33
-14 8 -23 5 -47 -17 l-29 -27 1 -196 c1 -221 9 -277 40 -277 22 -1 105 -86 89
-92 -6 -2 -10 -22 -8 -44 1 -23 0 -39 -4 -36 -3 3 -14 -3 -26 -13 -11 -11 -24
-17 -28 -14 -4 2 -10 0 -14 -6 -6 -9 7 -14 28 -11 4 0 7 -4 7 -9 0 -6 -10 -10
-22 -10 -13 0 -30 -5 -38 -10 -11 -7 -7 -10 18 -10 20 0 31 -4 27 -10 -3 -5
-17 -10 -31 -10 -43 0 -26 -20 19 -21 39 -1 40 -2 12 -9 -16 -4 -41 -13 -55
-19 -21 -10 -16 -11 30 -6 30 4 51 3 47 -1 -4 -4 -2 -13 4 -20 8 -10 1 -16
-30 -25 -44 -13 -46 -29 -3 -29 22 0 24 -2 12 -11 -11 -8 3 -9 53 -5 37 3 67
3 67 0 0 -3 -15 -11 -32 -19 -31 -13 -32 -14 -8 -15 l25 -1 -25 -11 c-28 -12
-23 -11 -102 -27 -66 -14 -95 -38 -32 -27 21 4 43 11 47 15 4 5 20 6 35 3 l27
-5 -30 -14 c-29 -13 -28 -13 25 -9 59 6 90 11 130 22 22 7 24 6 11 -9 -8 -11
-28 -17 -52 -17 -21 0 -41 -5 -44 -10 -3 -6 -17 -10 -31 -10 -13 0 -24 -3 -24
-8 0 -4 18 -6 40 -4 22 2 40 0 40 -6 0 -5 -6 -10 -12 -9 -45 1 -69 -4 -65 -15
2 -7 11 -12 18 -10 11 3 11 1 2 -9 -10 -10 -17 -10 -37 0 -16 9 -40 11 -73 7
-85 -12 -103 -17 -103 -32 0 -16 5 -17 29 -5 10 6 29 7 42 3 21 -5 20 -7 -16
-15 -63 -14 -288 -19 -296 -6 -4 7 -23 7 -64 0 -82 -15 -298 -14 -313 1 -18
18 -15 28 8 28 11 0 20 -6 20 -14 0 -11 10 -13 43 -9 62 8 70 23 11 23 -38 0
-52 4 -61 19 -10 17 -9 20 14 26 18 4 23 9 16 16 -7 7 -24 7 -53 -1 -23 -6
-45 -9 -48 -6 -8 9 1 14 33 19 21 3 30 9 30 22 0 10 6 20 14 23 10 3 12 0 8
-12 -5 -12 0 -16 22 -16 16 0 41 -6 55 -14 19 -9 36 -11 54 -5 15 5 40 11 57
14 24 5 27 8 13 16 -10 5 -27 5 -46 -2 -17 -6 -41 -9 -54 -7 -18 3 -12 8 27
21 l50 16 -85 -5 c-47 -3 -80 -1 -74 3 8 5 8 16 3 31 -7 18 -15 23 -36 21 -16
-2 -34 -7 -41 -13 -8 -6 -17 -5 -24 2 -8 8 0 12 28 17 22 3 50 8 63 11 18 4
22 2 18 -10 -5 -12 0 -16 22 -16 16 0 31 -6 34 -14 4 -11 16 -12 53 -5 52 10
69 19 36 19 -11 0 -28 7 -36 16 -12 12 -26 14 -56 9 -32 -5 -41 -3 -46 9 -6
16 -58 20 -79 6 -5 -4 -32 -10 -60 -13 -27 -4 -59 -9 -70 -11 -11 -3 -47 -5
-79 -5 -57 -1 -58 -2 -43 -19 10 -10 17 -23 17 -29 0 -15 27 -24 53 -19 68 14
91 16 77 6 -13 -8 -13 -10 1 -10 9 0 22 -7 29 -15 11 -13 10 -14 -4 -9 -11 4
-16 1 -16 -11 0 -13 6 -16 21 -12 16 4 18 3 9 -8 -7 -8 -32 -17 -56 -21 -72
-10 -66 -27 7 -21 70 6 107 -9 96 -38 -5 -13 -30 -15 -158 -15 -84 0 -149 3
-146 7 4 3 2 12 -4 19 -9 11 -7 15 7 21 16 6 16 7 -2 14 -17 7 -17 8 -1 8 9 1
17 6 17 12 0 5 -5 7 -12 3 -7 -4 -8 -3 -4 4 10 17 24 15 29 -5 4 -16 5 -16 6
0 1 11 -7 21 -19 24 -11 3 -18 9 -15 13 11 17 -26 3 -40 -16 -14 -18 -14 -17
-5 11 9 26 8 28 -4 12 -12 -16 -14 -16 -20 -2 -3 9 -2 14 3 11 5 -3 12 1 15
10 3 8 2 12 -4 9 -5 -3 -8 9 -6 28 2 23 -1 34 -10 34 -7 0 -12 -5 -11 -10 1
-5 -8 -11 -21 -13 -14 -3 -21 0 -17 6 4 6 3 10 -2 9 -19 -3 -25 2 -14 14 8 10
7 14 -4 14 -8 0 -12 -4 -10 -8 3 -3 -2 -12 -10 -19 -8 -7 -15 -18 -15 -24 0
-6 5 -4 10 4 9 13 10 13 10 0 0 -13 1 -13 10 0 5 8 10 11 11 5 0 -5 2 -21 5
-35 3 -21 2 -22 -7 -7 -6 9 -14 15 -19 12 -5 -3 -11 -1 -15 5 -4 6 -10 8 -15
5 -12 -8 -6 23 8 37 7 7 12 16 12 22 0 5 -6 1 -14 -10 -8 -10 -19 -20 -25 -20
-24 -3 -25 -5 -11 -15 13 -9 13 -10 0 -6 -16 4 -20 35 -7 53 5 8 -3 17 -23 25
-16 8 -30 17 -30 21 0 5 -3 7 -7 7 -22 -4 -23 3 -3 19 25 20 20 42 -8 42 -9 0
-25 7 -34 14 -16 12 -15 14 10 25 l27 13 -28 20 c-20 15 -26 25 -21 42 4 17
-1 25 -23 35 -24 11 -26 14 -10 22 25 14 21 27 -14 48 -18 11 -26 22 -20 25
19 12 12 25 -20 45 -30 18 -30 19 -9 26 17 5 19 10 9 21 -6 8 -19 14 -29 14
-27 0 -31 12 -10 27 28 20 18 29 -34 37 -59 9 -118 -8 -160 -44 -41 -37 -46
-37 -46 -4 0 16 12 37 31 55 33 31 44 35 54 19 14 -23 150 -1 142 23 -2 6 -21
16 -43 22 -39 11 -39 11 -11 18 53 14 18 65 -52 74 -52 7 -119 -25 -166 -80
-29 -34 -35 -48 -35 -88 0 -62 6 -77 42 -95 l29 -15 -33 -22 -33 -23 4 -79 c1
-43 7 -89 12 -102 7 -20 5 -25 -14 -32 -30 -12 -51 -37 -38 -45 6 -4 7 -14 4
-23 -5 -12 -3 -14 7 -8 10 6 11 4 4 -6 -11 -18 -13 -79 -2 -85 5 -3 6 -10 3
-15 -4 -5 -2 -9 3 -9 4 0 9 -20 11 -45 1 -29 -2 -45 -10 -45 -8 0 -8 -4 1 -15
11 -13 10 -14 -5 -8 -15 5 -17 3 -12 -12 6 -14 5 -16 -6 -7 -11 9 -13 7 -12
-10 1 -12 7 -24 15 -26 8 -3 10 0 5 8 -5 8 -4 11 3 7 5 -4 8 -16 5 -27 -5 -19
-14 -20 -154 -20 -88 0 -149 4 -149 10 0 5 -16 8 -36 6 -29 -2 -37 2 -44 20
-5 12 -14 25 -20 29 -5 3 -7 12 -4 18 5 8 3 8 -7 -1 -23 -21 -33 -13 -13 11
l19 22 -22 -18 c-11 -10 -20 -26 -18 -35 1 -9 -2 -26 -7 -37 -9 -19 -9 -19 6
-1 9 10 13 24 9 30 -3 6 -2 8 2 3 11 -10 14 -48 3 -41 -4 3 -8 0 -8 -5 0 -6
-10 -9 -22 -7 -21 3 -23 10 -28 77 -3 41 -2 144 2 229 3 85 7 209 7 275 1 135
6 162 30 169 9 3 104 12 211 21 211 18 323 39 160 29 -138 -8 -394 -32 -413
-40 -22 -8 -24 -17 -37 -179 -29 -343 -38 -428 -47 -434 -5 -3 -15 -15 -21
-26 -6 -11 -12 -14 -12 -7 0 8 -5 10 -12 6 -8 -5 -8 -2 1 10 8 9 10 16 5 15
-5 -1 -12 0 -16 1 -11 4 -27 7 -36 9 -7 1 -9 46 -2 46 1 0 3 7 5 16 4 20 -22
21 -30 1 -3 -8 -1 -20 4 -26 6 -7 6 -17 1 -26 -8 -12 -10 -12 -10 -1 0 11 -3
11 -15 1 -12 -10 -13 -8 -10 10 3 18 1 21 -15 17 -11 -3 -22 -1 -25 4 -3 4
-12 6 -19 3 -8 -3 -17 -1 -20 4 -3 5 2 9 11 8 9 0 17 5 19 12 1 7 0 8 -3 2 -7
-15 -23 -2 -17 14 7 18 -12 30 -22 15 -4 -8 -3 -9 4 -5 7 4 12 2 12 -3 0 -6
-7 -11 -16 -11 -9 0 -12 -5 -8 -12 4 -7 3 -8 -5 -4 -6 4 -9 11 -7 15 3 4 -1 8
-9 8 -8 0 -12 -4 -9 -9 12 -19 -27 -46 -62 -44 -20 1 -39 -3 -42 -9 -10 -16
-11 -35 -1 -41 5 -3 6 -10 3 -16 -4 -6 -10 -5 -15 3 -7 11 -9 10 -9 -3 0 -12
-8 -18 -21 -18 -21 0 -22 3 -16 64 3 36 13 95 21 133 9 37 25 131 36 208 35
233 42 268 50 255 5 -8 9 -7 14 5 4 12 14 16 31 13 14 -3 30 1 36 8 6 8 24 14
40 14 17 0 34 8 42 21 18 25 84 62 100 55 7 -2 4 -5 -6 -5 -10 -1 -16 -5 -13
-10 4 -5 14 -8 24 -6 9 2 21 4 25 4 5 1 5 7 1 14 -6 9 -4 9 8 -1 16 -12 95 -9
108 5 3 3 -12 3 -32 0 -21 -3 -38 -1 -38 4 0 4 -21 10 -47 12 -27 2 8 3 77 1
140 -3 247 5 560 41 118 13 283 31 365 39 83 9 209 27 280 42 72 14 150 30
175 34 25 4 95 18 155 30 61 11 164 30 230 41 126 21 228 41 458 90 76 16 148
29 162 29 13 0 36 10 52 23 37 30 97 65 153 88 69 28 72 21 5 -13z m1705 23
c0 -6 -4 -13 -10 -16 -5 -3 -10 1 -10 9 0 9 5 16 10 16 6 0 10 -4 10 -9z
m1960 -5 c0 -7 16 -21 35 -30 35 -17 47 -36 23 -36 -23 0 -98 35 -98 46 0 12
21 34 32 34 4 0 8 -6 8 -14z m680 4 c0 -5 -5 -10 -11 -10 -5 0 -7 5 -4 10 3 6
8 10 11 10 2 0 4 -4 4 -10z m-3105 -39 c24 -6 17 -8 -40 -14 -97 -10 -215 -9
-215 2 0 4 -12 7 -27 5 -28 -4 -28 -4 -3 5 29 11 241 12 285 2z m2930 -11 c-3
-5 -11 -10 -16 -10 -6 0 -7 5 -4 10 3 6 11 10 16 10 6 0 7 -4 4 -10z m1370 1
c-6 -5 -28 -11 -50 -15 l-40 -6 30 14 c34 16 74 21 60 7z m-1318 -26 c20 -8
34 -18 30 -21 -3 -3 -22 4 -44 15 -45 24 -37 27 14 6z m1737 -41 c30 -30 17
-40 -96 -73 -163 -48 -316 -97 -373 -120 -42 -16 -182 -58 -430 -128 -61 -17
-127 -24 -119 -12 3 5 9 7 14 4 5 -3 11 -1 14 4 4 5 2 12 -4 16 -18 11 8 43
47 55 21 7 42 16 47 21 6 5 19 9 30 9 12 0 98 24 191 54 356 114 591 184 627
185 21 0 43 -6 52 -15z m-3714 -20 c30 -5 40 -11 40 -25 0 -10 8 -22 17 -27
17 -10 18 -14 29 -104 l7 -58 -32 0 c-21 0 -30 4 -25 11 4 8 -10 10 -48 7 -46
-2 -54 0 -55 15 -1 9 6 18 15 18 13 1 12 2 -3 6 -11 3 -27 13 -35 23 -9 10
-36 19 -64 22 -42 5 -56 13 -90 49 -22 23 -36 44 -31 46 6 2 21 10 35 18 25
15 145 14 240 -1z m1630 -24 c39 -10 58 -26 46 -37 -6 -6 -79 19 -105 36 -13
8 -13 12 0 27 13 16 14 16 17 1 2 -10 20 -21 42 -27z m218 -117 c33 -4 42 -10
42 -25 0 -21 -18 -19 -72 8 -15 8 -34 14 -43 14 -18 0 -20 11 -3 28 9 9 14 8
23 -4 6 -8 30 -18 53 -21z m-324 -66 c476 -314 557 -369 553 -373 -4 -4 -38
15 -167 97 -19 12 -80 49 -135 82 -55 33 -134 81 -175 106 -41 25 -87 52 -102
60 -16 8 -28 19 -28 24 0 5 -6 4 -14 -2 -10 -9 -15 -8 -19 4 -4 8 -13 12 -22
9 -10 -4 -15 0 -15 11 0 9 -4 14 -9 11 -7 -5 -31 42 -31 60 0 14 40 -8 164
-89z m-3869 53 c16 -17 16 -20 3 -15 -9 4 -19 13 -22 21 -7 19 -2 18 19 -6z
m395 -75 c-30 -17 -40 -18 -40 -6 0 10 22 18 50 19 8 1 4 -5 -10 -13z m2030
-5 c0 -5 -2 -10 -4 -10 -3 0 -8 5 -11 10 -3 6 -1 10 4 10 6 0 11 -4 11 -10z
m160 -1 c0 -6 29 -39 64 -73 60 -59 148 -116 180 -116 18 0 24 -19 16 -50 -8
-34 -38 -36 -80 -7 -19 12 -54 34 -78 47 -25 14 -45 34 -48 47 -4 13 -18 32
-32 44 -14 11 -27 30 -29 42 -2 12 -10 27 -18 33 -18 14 -19 31 -2 37 20 9 27
8 27 -4z m1768 -26 c16 -16 16 -16 -1 -10 -10 4 -23 7 -28 7 -6 0 -7 5 -4 10
9 14 14 13 33 -7z m-2091 -9 c-3 -3 -12 -4 -19 -1 -8 3 -5 6 6 6 11 1 17 -2
13 -5z m140 0 c-3 -3 -12 -4 -19 -1 -8 3 -5 6 6 6 11 1 17 -2 13 -5z m-140
-30 c-3 -3 -12 -4 -19 -1 -8 3 -5 6 6 6 11 1 17 -2 13 -5z m74 -8 c13 2 18 2
12 -2 -23 -10 -14 -26 12 -22 36 7 21 -8 -17 -17 -22 -5 -27 -9 -16 -12 10 -2
45 3 78 11 77 20 86 20 70 1 -10 -12 -10 -15 3 -15 13 0 37 -46 37 -71 0 -4
-12 -12 -27 -18 -26 -10 -26 -10 8 -5 29 5 37 2 42 -13 8 -23 55 -103 73 -124
8 -8 14 -19 14 -23 0 -4 12 -23 26 -41 14 -19 23 -39 19 -45 -3 -6 3 -10 14
-10 14 0 19 -5 15 -15 -4 -10 0 -15 12 -15 25 0 54 -29 47 -47 -5 -12 -1 -14
17 -8 20 6 22 4 17 -14 -4 -16 -1 -21 15 -21 16 0 18 -3 9 -14 -9 -11 -7 -15
9 -19 11 -3 19 -11 18 -18 -2 -7 8 -16 22 -20 16 -4 19 -7 8 -8 -10 -1 -18 -6
-18 -12 0 -7 12 -9 35 -5 27 5 39 2 55 -14 11 -11 28 -20 38 -20 10 0 35 -18
57 -40 22 -21 44 -39 48 -40 4 0 13 -5 20 -10 7 -6 22 -19 35 -30 13 -10 25
-27 27 -37 2 -10 4 -18 6 -18 1 0 2 -12 3 -27 1 -15 5 -30 9 -34 4 -4 7 -13 7
-21 0 -11 -98 -13 -550 -13 l-551 0 43 60 c23 33 47 60 53 60 21 0 43 34 65
100 36 105 46 172 44 281 -2 72 1 106 9 111 9 6 9 10 -1 17 -8 5 -21 58 -31
130 -16 112 -17 123 -2 129 12 5 10 8 -9 13 l-25 7 23 7 c12 4 22 12 22 17 0
7 5 6 13 0 7 -6 24 -9 38 -6z m59 10 c0 -2 -7 -7 -16 -10 -8 -3 -12 -2 -9 4 6
10 25 14 25 6z m74 -16 c-5 -5 -25 -12 -44 -15 l-35 -6 30 15 c35 17 64 21 49
6z m-5199 -6 c-48 -8 -115 -9 -115 -2 0 5 30 7 68 7 37 -1 58 -3 47 -5z m1030
-43 c14 -6 4 -9 -33 -9 -30 -1 -50 3 -47 9 7 11 52 11 80 0z m-85 -26 c10 -12
10 -15 -3 -15 -31 0 -105 -98 -92 -120 3 -6 2 -10 -4 -10 -37 0 -21 63 29 118
43 46 51 49 70 27z m5555 -57 c18 -35 23 -54 15 -62 -7 -7 -10 -7 -10 1 0 13
-48 24 -56 12 -3 -5 3 -9 13 -9 12 -1 8 -5 -12 -15 -24 -11 -26 -14 -10 -14
17 -1 17 -3 5 -11 -23 -15 -37 -12 -42 8 -7 24 1 42 18 42 17 0 19 17 3 22 -9
3 -9 13 0 41 18 54 44 49 76 -15z m-5545 -108 c-20 -17 -37 -24 -39 -18 -5 15
36 48 58 48 11 0 5 -10 -19 -30z m107 -6 c-3 -3 -12 -4 -19 -1 -8 3 -5 6 6 6
11 1 17 -2 13 -5z m5587 -37 c-7 -18 -24 -23 -24 -7 0 6 6 10 13 11 9 0 9 2
-1 6 -6 2 -9 9 -6 15 10 15 26 -6 18 -25z m-5674 10 c0 -2 -10 -12 -22 -23
l-23 -19 19 23 c18 21 26 27 26 19z m5640 -17 c0 -5 -5 -10 -11 -10 -5 0 -7 5
-4 10 3 6 8 10 11 10 2 0 4 -4 4 -10z m-5520 -20 c-20 -13 -47 -13 -55 0 -4 6
9 10 32 10 28 0 34 -3 23 -10z m5750 -6 c2 -3 -6 -7 -18 -11 -12 -3 -22 -10
-22 -16 0 -6 -3 -7 -6 -4 -4 3 -16 0 -28 -8 -11 -8 -33 -15 -48 -15 -23 0 -28
4 -28 26 0 23 3 25 33 22 22 -2 31 1 29 10 -2 10 8 11 40 7 24 -4 45 -9 48
-11z m-5705 -54 c7 -11 -35 -23 -61 -18 -9 1 -19 9 -22 16 -5 15 74 17 83 2z
m-1395 -15 c-7 -8 -17 -15 -23 -15 -6 0 -19 -8 -30 -17 -11 -10 -17 -12 -13
-5 4 7 1 12 -8 12 -45 0 16 35 68 39 15 1 16 -2 6 -14z m-117 -42 c-9 -23 -29
-44 -36 -37 -7 8 4 37 17 46 18 13 26 9 19 -9z m1542 -18 c0 -5 -19 -11 -42
-13 -34 -3 -43 0 -43 13 0 13 9 16 43 13 23 -2 42 -7 42 -13z m5825 -9 c-61
-23 -78 -28 -52 -15 12 7 22 15 22 18 0 4 15 8 33 9 l32 1 -35 -13z m-5823
-42 c30 -8 19 -24 -17 -24 -31 0 -48 15 -28 23 18 7 20 7 45 1z m6039 -115
c51 -29 67 -47 44 -50 -5 -1 -16 -2 -22 -3 -7 -1 -23 6 -34 17 -12 10 -37 21
-55 24 -39 6 -203 109 -195 122 7 10 180 -63 262 -110z m-7608 76 c-3 -3 -9 2
-12 12 -6 14 -5 15 5 6 7 -7 10 -15 7 -18z m117 -75 c-6 -9 -9 -9 -16 1 -10
17 0 34 13 21 6 -6 7 -16 3 -22z m1483 19 c-12 -7 -24 -7 -35 0 -15 9 -12 10
17 10 29 0 32 -1 18 -10z m-1508 -53 c0 -21 -36 -103 -49 -110 -6 -4 -23 -28
-38 -53 -25 -43 -25 -47 -9 -58 15 -11 15 -16 4 -34 -14 -22 -68 -30 -68 -10
0 26 44 138 54 136 14 -3 72 114 68 136 -1 4 7 7 18 7 11 0 20 -6 20 -14z
m3037 -7 c-14 -8 -22 -8 -30 0 -8 8 -3 11 19 11 25 -1 27 -2 11 -11z m-1493
-5 c25 -10 19 -21 -14 -26 -16 -3 -30 -3 -30 -2 0 1 -3 9 -6 18 -6 17 19 22
50 10z m583 -60 c-4 -4 -25 -8 -48 -9 -26 -2 -36 1 -28 6 16 10 86 12 76 3z
m-312 -21 c-2 -10 -4 -20 -4 -22 -1 -2 -7 2 -15 8 -10 8 -16 9 -19 1 -3 -6 -4
-5 -3 2 2 7 8 13 14 13 5 0 14 3 18 8 11 11 13 9 9 -10z m435 7 c0 -5 -18 -10
-39 -10 -25 0 -41 -5 -45 -15 -4 -10 1 -15 14 -15 26 0 26 -16 0 -23 -15 -4
-24 2 -35 23 l-14 28 47 10 c64 13 72 14 72 2z m-2111 -7 c-3 -20 2 -34 10
-29 11 7 8 -21 -4 -31 -4 -4 -5 -2 -1 5 4 7 1 15 -7 18 -12 4 -15 19 -8 42 2
6 11 1 10 -5z m3007 -2 c-3 -5 -15 -7 -26 -4 -28 7 -25 13 6 13 14 0 23 -4 20
-9z m-2960 -16 c-1 -8 -5 -17 -8 -21 -5 -4 -4 16 1 34 3 9 9 -1 7 -13z m3369
-6 c-4 -5 -16 -9 -28 -9 -21 1 -21 1 -3 15 20 15 41 11 31 -6z m-291 -15 c3
-8 2 -12 -4 -9 -6 3 -10 10 -10 16 0 14 7 11 14 -7z m-2870 -3 c-8 -8 -34 -10
-38 -2 -3 4 6 7 19 7 14 0 22 -2 19 -5z m43 -17 c0 -10 -10 -11 -35 -5 -2 1
-1 5 2 9 8 13 33 10 33 -4z m2793 6 c0 -5 -2 -10 -4 -10 -3 0 -8 5 -11 10 -3
6 -1 10 4 10 6 0 11 -4 11 -10z m354 -13 c-1 -9 2 -15 6 -12 5 3 12 1 15 -5 4
-7 -7 -10 -32 -8 -31 2 -38 7 -38 23 0 16 6 21 25 20 17 0 25 -6 24 -18z
m-3186 -22 c-3 -3 -9 2 -12 12 -6 14 -5 15 5 6 7 -7 10 -15 7 -18z m1477 16
c3 -5 2 -12 -3 -15 -5 -3 -9 1 -9 9 0 17 3 19 12 6z m-1563 -15 c7 4 8 2 4 -5
-4 -6 -12 -9 -17 -6 -5 4 -9 1 -9 -6 0 -7 -2 -10 -5 -7 -3 3 -2 13 2 24 4 11
8 13 11 6 2 -7 9 -9 14 -6z m141 -1 c-3 -9 -8 -14 -10 -11 -3 3 -2 9 2 15 9
16 15 13 8 -4z m3051 6 c3 -4 -6 -6 -19 -3 -14 2 -25 6 -25 8 0 8 39 4 44 -5z
m-3079 -18 c-2 -10 -4 -19 -4 -21 -1 -2 -6 0 -11 3 -8 5 -7 11 1 21 15 18 18
18 14 -3z m-485 -13 c0 -5 -5 -10 -11 -10 -5 0 -7 5 -4 10 3 6 8 10 11 10 2 0
4 -4 4 -10z m740 -15 c7 -9 8 -15 2 -15 -5 0 -12 7 -16 15 -3 8 -4 15 -2 15 2
0 9 -7 16 -15z m2635 5 c-2 -4 -21 -7 -42 -8 -26 -1 -34 1 -24 8 17 10 72 10
66 0z m325 0 c0 -5 -9 -10 -20 -10 -11 0 -20 5 -20 10 0 6 9 10 20 10 11 0 20
-4 20 -10z m-657 -17 c-7 -2 -19 -2 -25 0 -7 3 -2 5 12 5 14 0 19 -2 13 -5z
m694 -23 c14 -11 22 -20 17 -20 -12 1 -61 39 -51 40 5 0 20 -9 34 -20z m-587
-5 c0 -8 -4 -15 -10 -15 -5 0 -7 7 -4 15 4 8 8 15 10 15 2 0 4 -7 4 -15z m537
0 c0 -8 -7 -15 -15 -15 -12 0 -12 3 -2 15 7 8 13 15 15 15 1 0 2 -7 2 -15z"/>
<path d="M340 5752 c0 -5 7 -16 16 -23 14 -12 16 -11 13 5 -4 20 -29 35 -29
18z"/>
<path d="M614 5709 c-3 -6 -1 -16 5 -22 8 -8 11 -5 11 11 0 24 -5 28 -16 11z"/>
<path d="M650 5701 c0 -6 5 -13 10 -16 6 -3 10 1 10 9 0 9 -4 16 -10 16 -5 0
-10 -4 -10 -9z"/>
<path d="M4421 5314 c0 -11 3 -14 6 -6 3 7 2 16 -1 19 -3 4 -6 -2 -5 -13z"/>
<path d="M4504 5282 c3 -6 0 -12 -7 -14 -11 -2 -11 -8 0 -28 9 -18 13 -20 13
-7 0 9 5 17 11 17 6 0 9 -7 6 -15 -4 -8 -2 -17 4 -20 5 -4 6 -11 3 -17 -5 -7
4 -9 24 -6 22 3 29 1 24 -7 -4 -6 1 -2 11 8 10 12 17 14 17 6 0 -15 13 -4 16
14 1 8 -10 12 -32 11 -19 -1 -34 2 -34 7 0 5 -11 14 -25 21 -13 6 -22 14 -20
19 3 4 0 11 -6 15 -7 4 -9 3 -5 -4z"/>
<path d="M4606 5268 c3 -5 9 -6 14 -3 4 3 11 -1 13 -7 4 -9 6 -8 6 2 1 13 2
13 11 0 7 -11 10 -11 10 -2 0 8 5 10 13 6 7 -4 8 -3 4 2 -10 11 -78 13 -71 2z"/>
<path d="M4734 5219 c-10 -4 -13 -8 -6 -8 6 -1 11 -6 10 -12 -4 -17 32 -19 39
-3 4 12 10 9 24 -13 14 -21 19 -23 19 -10 0 9 -4 17 -10 17 -5 0 -10 6 -10 14
0 17 -39 25 -66 15z m36 -17 c0 -5 -7 -9 -15 -9 -8 0 -12 4 -9 9 3 4 9 8 15 8
5 0 9 -4 9 -8z"/>
<path d="M4645 5209 c5 -7 52 -6 59 2 3 2 -10 5 -29 5 -18 0 -32 -3 -30 -7z"/>
<path d="M4892 5195 c4 -4 3 -14 -4 -22 -6 -7 -9 -15 -7 -18 3 -2 10 4 17 15
9 15 9 21 -1 26 -6 4 -9 4 -5 -1z"/>
<path d="M4830 5170 c0 -29 16 -32 32 -7 14 21 14 22 -8 23 -17 1 -24 -3 -24
-16z m17 -12 c-3 -8 -6 -5 -6 6 -1 11 2 17 5 13 3 -3 4 -12 1 -19z"/>
<path d="M4929 5177 c6 -8 7 -18 3 -22 -4 -5 -1 -5 6 -1 10 6 10 11 1 22 -6 8
-14 14 -16 14 -3 0 0 -6 6 -13z"/>
<path d="M6105 4390 c-3 -5 -1 -10 4 -10 6 0 11 5 11 10 0 6 -2 10 -4 10 -3 0
-8 -4 -11 -10z"/>
<path d="M3610 3160 c0 -11 5 -20 10 -20 6 0 10 9 10 20 0 11 -4 20 -10 20 -5
0 -10 -9 -10 -20z"/>
<path d="M2058 1993 c7 -3 16 -2 19 1 4 3 -2 6 -13 5 -11 0 -14 -3 -6 -6z"/>
<path d="M706 1773 c-4 -9 -3 -20 1 -24 13 -13 37 7 30 25 -8 21 -23 20 -31
-1z"/>
<path d="M425 1740 c-3 -5 -4 -14 0 -20 8 -13 35 -1 35 16 0 16 -26 19 -35 4z"/>
<path d="M3065 670 c-3 -5 1 -10 10 -10 9 0 13 5 10 10 -3 6 -8 10 -10 10 -2
0 -7 -4 -10 -10z"/>
<path d="M3320 615 c7 -9 15 -13 17 -11 7 7 -7 26 -19 26 -6 0 -6 -6 2 -15z"/>
<path d="M3215 600 c3 -5 8 -10 11 -10 2 0 4 5 4 10 0 6 -5 10 -11 10 -5 0 -7
-4 -4 -10z"/>
<path d="M2950 561 c0 -5 5 -13 10 -16 6 -3 10 -2 10 4 0 5 -4 13 -10 16 -5 3
-10 2 -10 -4z"/>
<path d="M2890 550 c0 -5 -8 -10 -17 -10 -17 -1 -17 -1 0 -11 13 -7 21 -6 32
4 8 8 11 17 8 21 -10 9 -23 7 -23 -4z"/>
<path d="M2931 544 c0 -11 3 -14 6 -6 3 7 2 16 -1 19 -3 4 -6 -2 -5 -13z"/>
<path d="M2805 520 c3 -5 8 -10 11 -10 2 0 4 5 4 10 0 6 -5 10 -11 10 -5 0 -7
-4 -4 -10z"/>
<path d="M2675 510 c-3 -5 -18 -7 -32 -4 -19 5 -24 3 -21 -7 4 -12 19 -14 76
-10 16 1 11 23 -5 28 -6 2 -14 -1 -18 -7z"/>
<path d="M2720 508 c0 -16 21 -18 47 -5 l27 15 -37 -1 c-20 -1 -37 -5 -37 -9z"/>
<path d="M2420 482 c0 -9 21 -32 30 -32 3 0 6 9 6 20 0 13 -7 20 -18 20 -10 0
-18 -4 -18 -8z"/>
<path d="M2480 476 c0 -9 5 -16 10 -16 6 0 10 4 10 9 0 6 -4 13 -10 16 -5 3
-10 -1 -10 -9z"/>
<path d="M2512 480 c2 -8 10 -15 16 -14 7 1 23 2 37 3 14 0 25 6 25 11 0 6
-11 10 -25 10 -14 0 -25 -5 -25 -11 0 -8 -6 -7 -17 2 -14 12 -16 12 -11 -1z"/>
<path d="M3030 400 c0 -5 5 -10 11 -10 5 0 7 5 4 10 -3 6 -8 10 -11 10 -2 0
-4 -4 -4 -10z"/>
<path d="M3068 403 c7 -3 16 -2 19 1 4 3 -2 6 -13 5 -11 0 -14 -3 -6 -6z"/>
<path d="M3190 389 c0 -5 5 -7 10 -4 6 3 10 8 10 11 0 2 -4 4 -10 4 -5 0 -10
-5 -10 -11z"/>
<path d="M2950 380 c0 -5 5 -10 10 -10 6 0 10 5 10 10 0 6 -4 10 -10 10 -5 0
-10 -4 -10 -10z"/>
<path d="M3140 380 c0 -5 5 -10 10 -10 6 0 10 5 10 10 0 6 -4 10 -10 10 -5 0
-10 -4 -10 -10z"/>
<path d="M3013 363 c-7 -2 -13 -9 -13 -15 0 -7 4 -7 13 0 6 5 21 12 32 15 l20
5 -20 0 c-11 0 -26 -2 -32 -5z"/>
<path d="M2780 350 c-34 -7 -34 -7 -5 -8 17 0 39 3 50 8 24 10 4 10 -45 0z"/>
<path d="M2955 350 c-3 -5 1 -10 10 -10 9 0 13 5 10 10 -3 6 -8 10 -10 10 -2
0 -7 -4 -10 -10z"/>
<path d="M3173 353 c9 -2 23 -2 30 0 6 3 -1 5 -18 5 -16 0 -22 -2 -12 -5z"/>
<path d="M2510 330 c0 -13 11 -13 30 0 12 8 11 10 -7 10 -13 0 -23 -4 -23 -10z"/>
<path d="M2710 329 c0 -5 5 -7 10 -4 6 3 10 8 10 11 0 2 -4 4 -10 4 -5 0 -10
-5 -10 -11z"/>
<path d="M2898 333 c7 -3 16 -2 19 1 4 3 -2 6 -13 5 -11 0 -14 -3 -6 -6z"/>
<path d="M3049 336 c-2 -2 -19 -6 -37 -9 -39 -6 -55 -17 -25 -17 36 0 83 12
83 21 0 9 -13 12 -21 5z"/>
<path d="M3240 330 c0 -5 7 -10 16 -10 8 0 12 5 9 10 -3 6 -10 10 -16 10 -5 0
-9 -4 -9 -10z"/>
<path d="M2395 320 c-4 -6 11 -10 37 -11 37 0 40 -2 20 -10 -13 -5 -29 -6 -34
-3 -6 4 -9 1 -6 -7 6 -18 39 -17 158 5 103 18 144 38 68 32 -25 -2 -50 -6 -54
-9 -19 -11 -99 -11 -96 1 3 15 -84 17 -93 2z"/>
<path d="M2803 323 c-14 -5 -18 -24 -5 -22 19 3 23 -2 12 -16 -10 -13 -9 -15
10 -15 16 0 20 4 16 16 -4 11 1 18 14 21 11 3 20 9 20 14 0 9 -46 11 -67 2z"/>
<path d="M2255 310 c-3 -5 -1 -10 5 -10 6 0 8 -4 5 -10 -3 -5 2 -10 12 -10 14
0 15 -2 5 -9 -23 -14 15 -22 69 -15 41 6 49 10 49 28 0 16 -2 18 -9 7 -7 -11
-10 -9 -16 8 -5 18 -14 21 -60 21 -30 0 -57 -4 -60 -10z"/>
<path d="M2725 300 c-3 -5 -1 -10 4 -10 6 0 11 5 11 10 0 6 -2 10 -4 10 -3 0
-8 -4 -11 -10z"/>
<path d="M2893 303 c-18 -2 -33 -8 -33 -13 0 -18 19 -19 54 -5 36 15 47 26 24
23 -7 0 -28 -3 -45 -5z"/>
<path d="M3075 300 c-18 -8 -17 -9 8 -9 16 -1 26 3 22 9 -3 6 -7 10 -8 9 -1 0
-11 -4 -22 -9z"/>
<path d="M2675 293 c-32 -8 -39 -20 -11 -20 13 0 27 6 30 13 3 8 4 13 3 13 -1
-1 -11 -3 -22 -6z"/>
<path d="M3230 290 c0 -5 5 -10 10 -10 6 0 10 5 10 10 0 6 -4 10 -10 10 -5 0
-10 -4 -10 -10z"/>
<path d="M3190 280 c0 -5 7 -7 15 -4 8 4 15 8 15 10 0 2 -7 4 -15 4 -8 0 -15
-4 -15 -10z"/>
<path d="M675 270 c-4 -6 -12 -7 -18 -4 -7 4 -9 4 -5 -1 4 -4 3 -14 -3 -21 -7
-8 -7 -14 1 -19 5 -3 10 1 10 9 0 8 4 18 10 21 5 3 7 0 4 -8 -3 -8 2 -17 11
-21 9 -3 14 -10 11 -14 -3 -5 1 -9 9 -9 10 0 12 4 5 12 -6 7 -9 19 -7 26 2 8
2 11 0 7 -9 -16 -22 -7 -18 12 4 22 0 26 -10 10z"/>
<path d="M2730 264 c0 -8 9 -14 19 -14 30 0 34 17 6 22 -17 4 -25 1 -25 -8z"/>
<path d="M2807 253 c-14 -14 -6 -20 19 -15 19 3 22 7 12 13 -16 11 -23 11 -31
2z"/>
<path d="M2860 250 c0 -5 5 -10 11 -10 5 0 7 5 4 10 -3 6 -8 10 -11 10 -2 0
-4 -4 -4 -10z"/>
<path d="M525 240 c-16 -7 -17 -9 -3 -9 9 -1 20 4 23 9 7 11 7 11 -20 0z"/>
<path d="M3325 240 c-3 -5 -2 -10 4 -10 5 0 13 5 16 10 3 6 2 10 -4 10 -5 0
-13 -4 -16 -10z"/>
<path d="M3230 220 c-12 -8 -12 -10 5 -10 11 0 27 5 35 10 12 8 12 10 -5 10
-11 0 -27 -5 -35 -10z"/>
<path d="M2626 211 c-3 -5 1 -11 9 -15 8 -3 15 -1 15 4 0 13 -18 22 -24 11z"/>
<path d="M3122 203 c-23 -2 -40 -8 -37 -14 7 -10 85 -1 100 12 5 6 3 8 -5 7
-8 -1 -34 -3 -58 -5z"/>
<path d="M3005 170 c3 -5 8 -10 11 -10 2 0 4 5 4 10 0 6 -5 10 -11 10 -5 0 -7
-4 -4 -10z"/>
<path d="M2918 153 c6 -2 18 -2 25 0 6 3 1 5 -13 5 -14 0 -19 -2 -12 -5z"/>
<path d="M3240 150 c-24 -8 -24 -8 7 -9 17 -1 35 4 38 9 7 11 -9 11 -45 0z"/>
<path d="M3170 134 l-25 -15 25 7 c28 7 35 12 29 18 -2 2 -15 -2 -29 -10z"/>
<path d="M3100 120 c0 -5 5 -10 10 -10 6 0 10 5 10 10 0 6 -4 10 -10 10 -5 0
-10 -4 -10 -10z"/>
<path d="M3240 119 c-140 -32 -211 -52 -206 -56 2 -3 31 1 63 8 32 7 63 13 68
14 20 2 111 16 138 21 15 3 27 10 27 15 0 11 -41 10 -90 -2z"/>
<path d="M2698 113 c-10 -2 -18 -9 -18 -15 0 -6 7 -7 18 -2 9 4 27 8 40 8 12
1 22 4 22 9 0 7 -33 8 -62 0z"/>
<path d="M2850 100 c0 -5 5 -10 10 -10 6 0 10 5 10 10 0 6 -4 10 -10 10 -5 0
-10 -4 -10 -10z"/>
<path d="M2768 88 c-32 -6 -58 -15 -58 -20 0 -5 8 -7 18 -4 9 3 33 8 52 11 19
3 39 10 45 16 5 5 7 8 5 8 -3 -1 -31 -6 -62 -11z"/>
<path d="M2890 70 c0 -5 5 -10 10 -10 6 0 10 5 10 10 0 6 -4 10 -10 10 -5 0
-10 -4 -10 -10z"/>
<path d="M2846 61 c-4 -5 3 -7 14 -4 23 6 26 13 6 13 -8 0 -17 -4 -20 -9z"/>
<path d="M1060 56 c0 -9 30 -14 35 -6 4 6 -3 10 -14 10 -12 0 -21 -2 -21 -4z"/>
<path d="M2746 41 c-3 -4 6 -6 19 -3 14 2 25 6 25 8 0 8 -39 4 -44 -5z"/>
<path d="M3070 40 c-11 -7 -7 -10 18 -10 17 0 32 5 32 10 0 13 -30 13 -50 0z"/>
<path d="M2708 33 c7 -3 16 -2 19 1 4 3 -2 6 -13 5 -11 0 -14 -3 -6 -6z"/>
<path d="M5750 880 l-25 -8 25 0 c14 0 36 4 50 8 l25 8 -25 0 c-14 0 -36 -4
-50 -8z"/>
<path d="M6240 294 l-35 -13 36 0 c21 -1 42 5 49 14 16 19 1 19 -50 -1z"/>
<path d="M6103 293 c9 -2 23 -2 30 0 6 3 -1 5 -18 5 -16 0 -22 -2 -12 -5z"/>
<path d="M2768 5113 c6 -2 18 -2 25 0 6 3 1 5 -13 5 -14 0 -19 -2 -12 -5z"/>
<path d="M1188 4703 c7 -3 16 -2 19 1 4 3 -2 6 -13 5 -11 0 -14 -3 -6 -6z"/>
<path d="M160 4670 c0 -5 5 -10 11 -10 5 0 7 5 4 10 -3 6 -8 10 -11 10 -2 0
-4 -4 -4 -10z"/>
<path d="M382 4480 c0 -14 2 -19 5 -12 2 6 2 18 0 25 -3 6 -5 1 -5 -13z"/>
<path d="M320 4361 c0 -25 6 -27 13 -6 4 8 2 17 -3 20 -6 4 -10 -3 -10 -14z"/>
<path d="M471 4204 c0 -11 3 -14 6 -6 3 7 2 16 -1 19 -3 4 -6 -2 -5 -13z"/>
<path d="M1955 4140 c-3 -5 -1 -10 4 -10 6 0 11 5 11 10 0 6 -2 10 -4 10 -3 0
-8 -4 -11 -10z"/>
<path d="M451 4076 c0 -13 3 -16 6 -7 5 11 7 11 14 0 7 -11 9 -9 9 7 0 12 -6
21 -15 21 -9 0 -15 -9 -14 -21z"/>
<path d="M228 4083 c-10 -2 -18 -9 -18 -14 0 -6 8 -5 20 1 11 6 20 13 20 15 0
3 -1 4 -2 4 -2 -1 -11 -3 -20 -6z"/>
<path d="M234 3935 c-10 -8 -14 -15 -8 -15 6 0 17 7 24 15 16 19 9 19 -16 0z"/>
<path d="M381 3934 c0 -11 3 -14 6 -6 3 7 2 16 -1 19 -3 4 -6 -2 -5 -13z"/>
<path d="M482 3930 c0 -14 2 -19 5 -12 2 6 2 18 0 25 -3 6 -5 1 -5 -13z"/>
<path d="M431 3924 c0 -11 3 -14 6 -6 3 7 2 16 -1 19 -3 4 -6 -2 -5 -13z"/>
<path d="M401 3794 c0 -11 3 -14 6 -6 3 7 2 16 -1 19 -3 4 -6 -2 -5 -13z"/>
<path d="M471 3794 c0 -11 3 -14 6 -6 3 7 2 16 -1 19 -3 4 -6 -2 -5 -13z"/>
<path d="M212 3510 c0 -14 2 -19 5 -12 2 6 2 18 0 25 -3 6 -5 1 -5 -13z"/>
<path d="M1520 3320 c0 -5 5 -10 10 -10 6 0 10 5 10 10 0 6 -4 10 -10 10 -5 0
-10 -4 -10 -10z"/>
<path d="M3828 3313 c6 -2 18 -2 25 0 6 3 1 5 -13 5 -14 0 -19 -2 -12 -5z"/>
<path d="M3777 3283 c3 -7 6 -13 8 -13 2 0 5 6 8 13 3 8 -1 14 -8 14 -7 0 -11
-6 -8 -14z"/>
<path d="M3796 3265 c-2 -6 2 -12 10 -12 7 0 15 6 18 12 2 6 -2 12 -10 12 -7
0 -15 -6 -18 -12z"/>
<path d="M3854 3273 c10 -10 56 -11 56 -1 0 4 -14 8 -32 8 -17 0 -28 -3 -24
-7z"/>
<path d="M1493 2125 c0 -8 8 -15 18 -15 24 0 33 16 13 24 -24 9 -31 7 -31 -9z"/>
<path d="M2303 2073 c-34 -7 -28 -20 7 -15 16 2 27 8 24 13 -3 5 -6 8 -7 8 -1
-1 -12 -4 -24 -6z"/>
<path d="M2295 2020 c2 -4 18 -5 36 -2 38 6 37 -16 -2 -35 -23 -12 -23 -14 4
-17 17 -2 40 32 33 50 -4 10 -17 14 -40 12 -19 -1 -33 -5 -31 -8z"/>
<path d="M2268 1943 c7 -3 16 -2 19 1 4 3 -2 6 -13 5 -11 0 -14 -3 -6 -6z"/>
</g>
</svg>
